<svg xmlns="http://www.w3.org/2000/svg" viewBox="0 0 24 24" id="listen">
    <path d="m18 10.922c-.276 0-.5.224-.5.5 0 3.038-2.462 5.5-5.5 5.5s-5.5-2.462-5.5-5.5c0-.276-.224-.5-.5-.5s-.5.224-.5.5c0 3.422 2.644 6.226 6.001 6.481l-.001 2.519c0 .276.224.5.5.5s.5-.224.5-.5v-2.519c3.356-.255 6-3.06 6-6.481 0-.276-.224-.5-.5-.5z"/>
    <path d="m14 6.422c-1.105 0-2 .895-2 2s.895 2 2 2c1.054 0 1.918-.816 1.995-1.851v-.031h.005v-2.213l1.603-.338c.232-.049.397-.253.397-.489v-2c0-.318-.292-.555-.603-.489l-2 .422c-.232.049-.397.253-.397.489v.78l.001 1.988c-.294-.17-.636-.268-1.001-.268zm0 3c-.552 0-1-.448-1-1s.448-1 1-1 1 .448 1 1-.448 1-1 1zm2-5.094 1-.211v.978l-1 .211z"/>
    <path d="m12 15.422c2.209 0 4-1.791 4-4 0-.276-.224-.5-.5-.5s-.5.224-.5.5c0 1.657-1.343 3-3 3s-3-1.343-3-3v-4l.005-.176c.091-1.575 1.397-2.824 2.995-2.824.452 0 .888.1 1.286.289.249.119.548.013.666-.237.119-.249.013-.548-.237-.666-.531-.253-1.114-.386-1.715-.386-2.209 0-4 1.791-4 4v4l.005.2c.104 2.116 1.853 3.8 3.995 3.8z"/>
</svg>