<svg xmlns="http://www.w3.org/2000/svg" viewBox="0 0 24 24">
    <path d="m11.9635525 0c6.6074034 0 11.9635526 5.35614915 11.9635526 11.963878 0 6.6070779-5.3561492 11.9632271-11.9635526 11.9632271-6.60707792 0-11.9635525-5.3561492-11.9635525-11.9632271 0-6.60772885 5.35647458-11.963878 11.9635525-11.963878zm1.8123195 4.255648c-1.27072.41952-1.88032 1.60416-1.51584 2.94816.03584.13472.09824.37184.13088.49568-.272.05824-.54176.13824-.80704.24032-1.24128.47776-2.22656 1.53984-2.57088 2.77056-.12288.43744-.16448.89152-.1248 1.34912.0864.98912.61376 1.91008 1.41088 2.464.75072.5216 1.64896.67488 2.52992.43168.62368-.17216 1.17792-.54272 1.56096-1.04288.60608-.792.78688-1.83264.5088-2.92992-.1008-.39904-.22816-.84288-.35136-1.27168-.04448-.1552-.08896-.31104-.1328-.4656.52704.13568 1.01312.392 1.408.76128 1.37216 1.2816 1.6368 3.48928.61504 5.13536-.89696 1.44576-2.6448 2.38048-4.45248 2.38048-3.048 0-5.52768-2.47968-5.52768-5.52768 0-.27104.02112-.54464.0624-.81408.03328-.21696.08-.43296.13888-.6432.05824-.20704.1296-.41312.21184-.61184.08192-.19744.176-.39168.28032-.5776.10304-.18432.21856-.36512.34336-.5376.1232-.17088.25856-.33632.40192-.4928.14272-.15552.296-.30432.45568-.44256s.32928-.2688.50432-.38784c.17568-.12.36-.23008.54816-.32832.10304-.05376.20768-.10432.31392-.15136.05696-.02496.11456-.04928.17248-.07264.39904-.15904.59328-.61088.43424-1.00928-.15872-.39936-.61088-.59392-1.00992-.43424-.0752.02976-.15008.06176-.22624.09504-.13696.0608-.27168.12544-.40384.19456-.2416.12608-.47808.26784-.70368.42144-.22464.15264-.44224.32032-.64672.49728-.20448.17728-.40128.36832-.584.56768-.18368.2-.35712.41248-.51552.632-.16.2208-.30816.4528-.44032.68928-.13408.23904-.25504.48864-.36032.74208-.10592.25568-.19744.52096-.272.78752-.07584.26976-.136.54816-.17888.82656-.05312.3472-.08032.70016-.08032 1.04992 0 3.90496 3.17696 7.0816 7.08192 7.0816 2.33312 0 4.59936-1.22272 5.77312-3.11488 1.42848-2.30144 1.06048-5.28352-.87488-7.09088-.79232-.74016-1.82368-1.1744-2.91072-1.2704-.05792-.21856-.1456-.55296-.2128-.80384-.0512-.1856-.07488-.39584-.02016-.58336.01504-.05248.03872-.09984.06464-.14784.11264-.20928.3232-.3536.5568-.39232.10592-.01792.21504-.01216.31872.01504.1088.0288.2112.08.30112.14752.09376.07136.16736.16288.2528.24256.13888.1296.32512.20896.52992.20896.42944 0 .77728-.34816.77728-.77728 0-.12736-.03104-.24768-.08512-.3536-.0048-.00928-.00992-.01856-.01504-.02752-.0032-.00608-.00704-.01248-.01024-.01856-.08704-.14624-.2128-.2736-.3424-.38464-.24896-.21376-.54336-.37536-.85568-.4752-.1472-.04704-.29856-.08-.45184-.09728-.33728-.03872-.68224-.00352-1.0048.10304zm-.98592 4.94784c.08256.30496.17312.62144.26336.93568.12192.42432.24256.8448.33856 1.22464.11264.44416.16288 1.08256-.23616 1.60352-.17824.23296-.4416.40704-.74048.48992-.54816.1504-.9712-.03104-1.22944-.21024-.4224-.29376-.7024-.78784-.74912-1.32224-.02368-.27072.00096-.53824.07296-.7952.21472-.768.84032-1.43424 1.63296-1.7392.2128-.08192.42944-.14432.64736-.18688z"
          fill-rule="evenodd"/>
</svg>