<svg xmlns="http://www.w3.org/2000/svg" viewBox="0 0 93 24">
    <path d="m45.411 4.046c.393 0 .718.292.769.671l.007.105v12.111c-.036 1.355-1.103 2.458-2.445 2.544l-.169.005h-1.876c-.094 0-.153-.091-.128-.172l.02-.039.881-1.212c.044-.06.108-.102.179-.12l.073-.009h.852c.547 0 .998-.414 1.055-.946l.006-.116v-11.27h-12.496v13.707c0 .079-.051.145-.122.169l-.056.009h-1.196c-.079 0-.145-.051-.169-.122l-.009-.056v-14.483c0-.393.292-.718.671-.769l.105-.007zm75.268-.259c.065-.009.125.026.152.082l.014.046.067.477c.066.47-.265.903-.736.964-1.772.227-6.035.735-10.302.958l-.427.021-.519 3.905h5.17v-2.503c0-.453.339-.827.778-.882l.112-.007h.485c.078 0 .145.051.168.121l.009.056v3.216h6.271c.07 0 .13.045.151.108l.008.05v.438c0 .456-.341.832-.782.887l-.112.007h-5.536v5.11c0 1.388-1.082 2.523-2.448 2.609l-.165.005h-1.209c-.13 0-.213-.129-.173-.243l.025-.047.809-1.121c.051-.071.127-.119.212-.136l.065-.006h.272c.547 0 .998-.414 1.056-.946l.006-.116v-5.11h-6.008c-.213 0-.416-.091-.557-.25-.118-.133-.184-.302-.188-.477l.005-.105.692-5.366c.043-.364.344-.642.709-.657 5.316-.215 10.957-.957 11.926-1.088zm-56.307 7.944c.312 0 .57.23.614.529l.007.092v4.488c0 1.388-1.082 2.523-2.448 2.609l-.165.005h-2.234c-.118 0-.193-.117-.156-.22l.023-.043.842-1.159c.045-.061.11-.104.182-.122l.074-.009h1.269c.547 0 .998-.414 1.056-.946l.006-.116v-3.775l-.755-.002h-.835l-4.549 6.26c-.045.062-.109.104-.182.122l-.074.009h-1.374c-.109 0-.179-.107-.15-.202l.023-.046 4.464-6.142h-2.55l-4.541 6.246c-.053.072-.131.121-.217.138l-.066.006h-1.347c-.113 0-.185-.11-.154-.208l.024-.048 4.46-6.135h-2.497l-1.778 2.432c-.051.07-.127.117-.21.133l-.064.006h-1.363c-.11 0-.181-.107-.151-.204l.024-.047 1.23-1.685 1.238-1.728c.098-.126.24-.209.396-.233l.095-.007h11.833zm36.631 0c.377 0 .689.28.738.644l.007.101v6.233c0 .377-.28.689-.644.738l-.101.007h-10.811c-.377 0-.689-.28-.738-.644l-.007-.101v-6.233c0-.377.28-.689.644-.738l.101-.007zm-16.446-1.96c.075 0 .138.049.161.116l.009.053v.48c0 .429-.321.783-.735.834l-.105.007h-8.539l-3.537 6.703h10.153l-1.765-3.311c-.056-.126.018-.266.142-.299l.056-.007h1.196c.069 0 .133.032.173.086l.026.044 2.037 3.924c.132.298.055.657-.215.875-.108.087-.242.137-.38.153l-.104.006h-12.54c-.322 0-.615-.211-.708-.536-.044-.151-.031-.312.023-.459l.048-.108 3.731-7.07h-4.086c-.469 0-.855-.353-.908-.807l-.006-.107v-.407c0-.075.049-.139.117-.162l.054-.009h15.702zm25.845 3.338h1.088c.122 0 .192.132.13.236-.625 1.054-1.719 3.084-2.887 4.945-.139.221-.372.361-.628.393l-.111.007h-.988c-.167 0-.266-.183-.177-.325 1.035-1.644 2.084-3.707 2.832-4.855.143-.22.374-.361.629-.393l.112-.008h1.088zm8.56 0c.299 0 .577.149.74.4.748 1.148 1.797 3.211 2.832 4.855.089.142-.009.325-.176.325h-.989c-.298 0-.58-.147-.739-.399-1.168-1.861-2.262-3.891-2.886-4.945-.062-.105.008-.236.13-.236zm-18.766 3.172h-9.191v1.795h9.191zm-61.654-8.85c.036 0 .071.013.098.036l.034.041 1.572 2.75 1.572-2.75c.018-.032.047-.055.08-.067l.052-.009h1.368c.1 0 .168.093.149.183l-.017.044-2.346 4.105 2.346 4.106c.05.087.003.192-.085.221l-.047.007h-1.368c-.036 0-.071-.013-.098-.036l-.034-.041-1.572-2.75-1.572 2.75c-.018.032-.046.055-.08.067l-.053.009h-1.368c-.1 0-.168-.093-.149-.183l.017-.045 2.346-4.106-2.346-4.105c-.05-.087-.003-.192.085-.221l.047-.007h1.369zm-3.689 0c.036 0 .071.013.098.036l.034.041 2.383 4.164c.03.052.024.11-.004.155l-.001.006-.001.006-2.389 4.182c-.018.032-.046.055-.08.067l-.053.009h-1.384c-.1 0-.168-.093-.149-.183l.017-.045 2.354-4.12-2.341-4.091c-.05-.087-.003-.192.085-.221l.047-.007h1.384zm65.343 5.678h-9.191v1.795h9.191zm-36.363-9.252c.312 0 .57.23.614.529l.007.092v5.417c0 .312-.23.57-.529.614l-.092.007h-11.435c-.312 0-.569-.23-.614-.529l-.007-.092v-5.417c0-.312.23-.57.529-.614l.092-.007zm31.66-.654c.104 0 .202.044.27.12l.045.062.698 1.216h5.745c.077 0 .143.05.166.119l.009.055v.42c0 .456-.342.833-.783.888l-.112.007h-.932l-1.672 2.935h4.494c.091 0 .168.062.191.145l.007.053v.427c0 .442-.33.806-.758.859l-.109.007h-14.29c-.452 0-.825-.338-.879-.775l-.007-.111v-.408c0-.091.061-.167.144-.19l.052-.007h4.495l-1.672-2.935h-.932c-.456 0-.833-.341-.888-.783l-.007-.112v-.41c0-.081.053-.151.126-.175l.058-.009h5.835l-.665-1.158c-.053-.092-.004-.203.089-.233l.05-.008h1.232zm-32.591 4.604h-9.56v1.467h9.56zm35.982-1.716h-6.574l1.672 2.935h3.23zm-35.982-.992h-9.56v1.467h9.56zm20.301-.498c.082 0 .152.053.177.127l.01.059v.439c0 .441-.33.805-.756.858l-.109.007h-11.614c-.454 0-.829-.34-.884-.779l-.007-.112v-.398c0-.093.062-.17.148-.194l.054-.007z"
          fill-rule="evenodd" transform="translate(-30)"/>
</svg>