<svg xmlns="http://www.w3.org/2000/svg" viewBox="0 0 24 24">
    <path d="m18 6h-13c-1.103 0-2 .897-2 2v9c0 1.103.897 2 2 2h13c1.103 0 2-.897 2-2v-9c0-1.103-.897-2-2-2zm1 11c0 .552-.448 1-1 1h-13c-.551 0-1-.448-1-1v-9c0-.551.449-1 1-1h13c.552 0 1 .449 1 1z"/>
    <path d="m16.706 8.096-4.324 3.145c-.528.384-1.236.384-1.765 0l-4.323-3.145c-.224-.163-.537-.113-.698.11-.163.223-.113.536.11.698l4.324 3.145c.439.32.955.479 1.47.479s1.031-.16 1.47-.479l4.324-3.145c.224-.162.272-.475.11-.698-.162-.224-.475-.272-.698-.11z"/>
</svg>