<svg xmlns="http://www.w3.org/2000/svg" viewBox="0 0 24 24" id="set">
    <title>set</title>
    <path d="m12.7 3c.5 0 .9.3 1 .8l.7 2.7c.4.2.8.4 1.2.7l2.7-.8c.4-.1.9.1 1.1.5l.7 1.2c.3.4.2.9-.1 1.2l-2 2v.7s0 .5 0 .7l2 2c.3.3.4.8.2 1.2l-.7 1.2c-.2.4-.7.6-1.1.5l-2.7-.8c-.4.3-.8.5-1.2.7l-.7 2.7c-.1.4-.5.8-1 .8h-1.4c-.5 0-.9-.3-1-.8l-.7-2.7c-.4-.2-.8-.4-1.2-.7l-2.7.8c-.4.1-.9-.1-1.1-.5l-.7-1.2c-.4-.4-.3-.9 0-1.2l2-2c0-.2 0-.5 0-.7s0-.5 0-.7l-2-2c-.3-.3-.4-.8-.2-1.2l.7-1.2c.2-.4.7-.6 1.1-.5l2.7.8c.4-.3.8-.5 1.2-.7l.7-2.7c.1-.4.5-.8 1-.8zm-.4 1h-.7c-.2 0-.4.2-.5.4l-.6 2.4c-.1.3-.2.5-.5.6-.3.2-.7.4-1 .6-.2.2-.6.2-.9.2l-2.3-.7c-.2-.1-.5 0-.6.2l-.3.6c-.1.2-.1.4.1.6l1.7 1.7c.2.2.3.4.3.7v.1.6s0 .4 0 .6c0 .3-.1.6-.3.8l-1.7 1.7c-.2.2-.2.4-.1.6l.3.6c.1.2.3.3.6.2l2.3-.7c.3-.1.5 0 .8.1l.1.1c.3.2.7.4 1 .6.3.1.5.4.6.7l.6 2.4c.1.2.3.4.5.4h.7c.2 0 .4-.2.5-.4l.6-2.4c.1-.3.2-.5.5-.6l.1-.1c.4-.2.7-.4 1-.6s.6-.2.9-.2l2.3.7c.2.1.5 0 .6-.2l.3-.6c.1-.2.1-.4-.1-.6l-1.7-1.7c-.3-.2-.4-.4-.4-.7v-.1c0-.2 0-.4 0-.6s0-.4 0-.6c0-.3.1-.6.3-.8l1.7-1.7c.2-.2.2-.4.1-.6l-.3-.6c-.1-.2-.3-.3-.6-.2l-2.3.7c-.3.1-.5 0-.8-.1l-.1-.1c-.3-.2-.7-.4-1-.6-.3-.1-.5-.4-.6-.7l-.6-2.4c0-.1-.2-.3-.5-.3zm-.3 5c1.7 0 3 1.3 3 3s-1.3 3-3 3-3-1.3-3-3 1.3-3 3-3zm0 1c-1.1 0-2 .9-2 2s.9 2 2 2 2-.9 2-2-.9-2-2-2z"/>
</svg>