<svg xmlns="http://www.w3.org/2000/svg" viewBox="0 0 24 24" id="skin_24">
    <path d="m7 11.653-1.329.442c-.458.164-.971-.018-1.218-.436l-1.315-2.227c-.284-.482-.115-1.098.371-1.373l3.255-1.841c.834-.47 1.775-1.218 2.732-1.218.237.0.441.667.489.899.192.923 1.031 1.601 2.015 1.601s1.823-.678 2.014-1.601c.048-.232.253-.899.49-.899.957.001 1.898.749 2.731 1.22l3.255 1.839c.449.253.632.801.413 1.295l-.041.078-1.314 2.228c-.225.381-.674.569-1.132.462l-.087-.026-1.329-.443v6.844c0 .828-.573 1.5-1.401 1.5h-7.099c-.828.0-1.5-.672-1.5-1.5zm9.743-4.562c-.575-.325-1.213-.736-1.868-.791-.428 1.171-1.567 2.2-2.875 2.2s-2.448-1.029-2.876-2.2c-.655.054-1.292.464-1.867.789l-3.254 1.84 1.311 2.222c.002.003.011.006.019.003l1.899-.682c.326-.118.768.124.768.47v7.573c0 .276.125.5.401.5h7.198c.276.0.401-.224.401-.5v-7.573c0-.346.442-.588.768-.471l1.872.673.03.01c.008.002.015-.001.016-.004l1.3-2.202.011-.02z"/>
</svg>