<svg xmlns="http://www.w3.org/2000/svg">
    <symbol viewBox="0 0 16 16" id="back">
        <title>back</title>
        <path d="m5.843 8 3.889 3.889c.195.195.195.512 0 .707s-.512.195-.707 0l-4.243-4.242c-.195-.195-.195-.512 0-.707l4.243-4.243c.195-.195.512-.195.707 0s.195.512 0 .707z"/>
    </symbol>
    <symbol viewBox="0 0 24 24" id="close">
        <title>close</title>
        <path d="m5.1 6.8 12 12c.2.2.5.2.7 0s.2-.5 0-.7l-12-12c-.2-.1-.5-.1-.7 0-.1.2-.1.5 0 .7zm.7 12.1 12-12c.2-.2.2-.5 0-.7s-.5-.2-.7 0l-12 12c-.2.2-.2.5 0 .7.2.1.5.1.7 0z"/>
    </symbol>
    <symbol viewBox="0 0 14 8" id="down">
        <title>down</title>
        <path d="m1033.00025 90.50025c-.128 0-.256-.049-.354-.146l-6.5-6.5c-.195-.196-.195-.512 0-.708.196-.195.512-.195.708 0l6.146 6.147 6.146-6.147c.196-.195.512-.195.708 0 .195.196.195.512 0 .708l-6.5 6.5c-.098.097-.226.146-.354.146"
              fill="#333" fill-rule="evenodd" transform="translate(-1026 -83)"/>
    </symbol>
    <symbol viewBox="0 0 10 10" id="fullscreen">
        <title>fullscreen</title>
        <path d="m2 7c0 .55.45 1 1 1h3.6l-4.6-4.6z"/>
        <path d="m7 2h-3.6l4.6 5.4v-4.4c0-.55-.45-1-1-1z"/>
    </symbol>
    <symbol viewBox="0 0 16 16" id="head_arr">
        <title>head_arr</title>
        <path d="m.5 0h6.624c.276 0 .5.224.5.5 0 .131-.051.256-.142.349l-3.312 3.389c-.193.197-.51.201-.707.008-.003-.003-.005-.005-.008-.008l-3.313-3.389c-.193-.197-.189-.514.008-.707.094-.091.219-.142.35-.142"
              fill-opacity=".8" fill-rule="evenodd" transform="translate(4 6)"/>
    </symbol>
    <symbol viewBox="0 0 24 24" id="icon24_close">
        <title>icon24_close</title>
        <path d="m5.1 6.8l12 12c .2.2.5.2.7 0 .2-.2.2-.5 0-.7l-12-12c-.2-.1-.5-.1-.7 0-.1.2-.1.5 0 .7zm.7 12.1l12-12c .2-.2.2-.5 0-.7-.2-.2-.5-.2-.7 0l-12 12c-.2.2-.2.5 0 .7.2.1.5.1.7 0z"
              fill-opacity=".6"/>
    </symbol>
    <symbol viewBox="0 0 24 24" id="icon24_full">
        <title>icon24_full</title>
        <path clip-rule="evenodd"
              d="m5.5 14c .3 0 .5.2.5.5v2.8l2.6-2.6c.2-.2.4-.2.6-.1l.1.1c.2.2.2.5 0 .7l0 0-2.6 2.6h2.8c.3 0 .5.2.5.5s-.2.5-.5.5h-3.5c-.6 0-1-.4-1-1v-3.5c0-.3.2-.5.5-.5zm12.5-9c .6 0 1 .4 1 1v3.5c0 .3-.2.5-.5.5s-.5-.2-.5-.5v-2.8l-2.6 2.6c-.2.2-.4.2-.6.1l-.1-.1c-.2-.2-.2-.4-.1-.6l.1-.1 2.6-2.6h-2.8c-.3 0-.5-.2-.5-.5s.2-.5.5-.5z"
              fill-opacity=".6" fill-rule="evenodd"/>
    </symbol>
    <symbol viewBox="0 0 24 24" id="icon24_max">
        <title>icon24_max</title>
        <path d="m18 6c .6 0 1 .4 1 1v10c0 .6-.4 1-1 1h-12c-.6 0-1-.4-1-1v-10c0-.6.4-1 1-1zm-12 1v10h12v-10z"
              fill-opacity=".6"/>
    </symbol>
    <symbol viewBox="0 0 24 24" id="icon24_min">
        <title>icon24_min</title>
        <path clip-rule="evenodd"
              d="m6.5 12h11c .3 0 .5.2.5.5l0 0c0 .3-.2.5-.5.5h-11c-.3 0-.5-.2-.5-.5l0 0c0-.3.2-.5.5-.5z"
              fill-opacity=".6" fill-rule="evenodd"/>
    </symbol>
    <symbol viewBox="0 0 24 24" id="icon24_normal">
        <title>icon24_normal</title>
        <path d="m17 7c .6 0 1 .4 1 1v9c0 .6-.4 1-1 1h-11c-.6 0-1-.4-1-1v-9c0-.6.4-1 1-1zm-11 1v9h11v-9z"
              fill-opacity=".6"/>
        <path d="m17 5c1.7 0 3 1.3 3 3v5.5c0 .3-.2.5-.5.5s-.5-.2-.5-.5v-5.5l0 0c0-1.1-.9-2-2-2h-6.5c-.3 0-.5-.2-.5-.5s.2-.5.5-.5z"
              fill-opacity=".6"/>
    </symbol>
    <symbol viewBox="0 0 72 72" id="icon70_screenclose">
        <title>icon70_screenclose</title>
        <path d="m36 0c19.9 0 36 16.1 36 36s-16.1 36-36 36-36-16.1-36-36 16.1-36 36-36zm0 1c-19.3 0-35 15.7-35 35s15.7 35 35 35 35-15.7 35-35-15.7-35-35-35zm-3.5 38.4c.2 0 .4.2.5.4v.1 9.7c0 .3-.2.5-.5.5-.2 0-.4-.2-.5-.4v-.1-8.4l-9.1 9.1c-.2.2-.5.2-.7.1l-.1-.1c-.2-.2-.2-.4 0-.7l.1-.1 9.1-9.1h-8.5c-.2 0-.4-.2-.5-.4v-.1c0-.2.2-.4.4-.5h.1zm7.5-6.9c-.1 0-.1 0 0 0-.1-.1-.1-.1-.1-.1-.1-.1-.1-.2-.1-.3v-9.6c0-.3.2-.5.5-.5.2 0 .4.2.5.4v.1 8.4l9.1-9.1c.2-.2.4-.2.6 0l.1.1c.2.2.2.4.1.6l-.1.1-9.1 9.1h8.5c.2 0 .4.2.5.4v.1c0 .2-.2.4-.4.5h-.1-9.6c-.2-.1-.3-.1-.4-.2 0 .1 0 .1 0 0z"
              fill="#fff"/>
    </symbol>
    <symbol viewBox="0 0 24 24" id="listen">
        <title>listen</title>
        <path d="m18 10.922c-.276 0-.5.224-.5.5 0 3.038-2.462 5.5-5.5 5.5s-5.5-2.462-5.5-5.5c0-.276-.224-.5-.5-.5s-.5.224-.5.5c0 3.422 2.644 6.226 6.001 6.481l-.001 2.519c0 .276.224.5.5.5s.5-.224.5-.5v-2.519c3.356-.255 6-3.06 6-6.481 0-.276-.224-.5-.5-.5z"/>
        <path d="m14 6.422c-1.105 0-2 .895-2 2s.895 2 2 2c1.054 0 1.918-.816 1.995-1.851v-.031h.005v-2.213l1.603-.338c.232-.049.397-.253.397-.489v-2c0-.318-.292-.555-.603-.489l-2 .422c-.232.049-.397.253-.397.489v.78l.001 1.988c-.294-.17-.636-.268-1.001-.268zm0 3c-.552 0-1-.448-1-1s.448-1 1-1 1 .448 1 1-.448 1-1 1zm2-5.094 1-.211v.978l-1 .211z"/>
        <path d="m12 15.422c2.209 0 4-1.791 4-4 0-.276-.224-.5-.5-.5s-.5.224-.5.5c0 1.657-1.343 3-3 3s-3-1.343-3-3v-4l.005-.176c.091-1.575 1.397-2.824 2.995-2.824.452 0 .888.1 1.286.289.249.119.548.013.666-.237.119-.249.013-.548-.237-.666-.531-.253-1.114-.386-1.715-.386-2.209 0-4 1.791-4 4v4l.005.2c.104 2.116 1.853 3.8 3.995 3.8z"/>
    </symbol>
    <symbol viewBox="0 0 24 24" id="logo">
        <title>logo</title>
        <g fill="none" fill-rule="evenodd">
            <path d="m0 0h24v24h-24z"/>
            <g transform="translate(.000032)">
                <path d="m11.764 0c-6.497 0-11.764 5.267-11.764 11.764s5.267 11.764 11.764 11.764 11.764-5.267 11.764-11.764-5.267-11.764-11.764-11.764"
                      fill="#dd001b"/>
                <path d="m13.156 12.967c-.178.233-.442.407-.74.49-.548.15-.971-.031-1.229-.21-.422-.294-.702-.788-.749-1.322-.024-.271.001-.538.073-.795.215-.768.84-1.434 1.633-1.739.213-.082.429-.144.647-.187.083.305.173.621.263.936.122.424.243.845.339 1.225.112.443.162 1.081-.237 1.602m3.727-4.097c-.792-.74-1.824-1.174-2.911-1.27-.058-.219-.146-.553-.213-.804-.051-.186-.075-.396-.02-.583.015-.052.039-.1.065-.148.113-.209.323-.354.557-.392.106-.018.215-.012.319.015.109.029.211.08.301.148.094.071.167.163.253.243.139.13.325.209.53.209.429 0 .777-.348.777-.777 0-.127-.031-.248-.085-.354-.005-.009-.01-.019-.015-.028-.003-.006-.007-.012-.01-.019-.087-.146-.213-.274-.342-.385-.249-.214-.543-.375-.856-.475-.147-.047-.299-.08-.452-.097-.337-.039-.682-.004-1.005.103-1.271.42-1.88 1.604-1.516 2.948.036.135.098.372.131.496-.272.058-.542.138-.807.24-1.241.478-2.227 1.54-2.571 2.771-.123.437-.164.892-.125 1.349.086.989.614 1.91 1.411 2.464.751.522 1.649.675 2.53.432.624-.172 1.178-.543 1.561-1.043.606-.792.787-1.833.509-2.93-.101-.399-.228-.843-.351-1.272-.044-.155-.089-.311-.133-.466.527.136 1.013.392 1.408.761 1.372 1.282 1.637 3.489.615 5.135-.897 1.446-2.645 2.38-4.452 2.38-3.048 0-5.528-2.48-5.528-5.528 0-.271.021-.545.062-.814.033-.217.08-.433.139-.643.058-.207.13-.413.212-.612.082-.197.176-.392.28-.578.103-.183.218-.363.343-.536.123-.171.259-.336.402-.493.143-.156.296-.304.456-.443.16-.138.329-.269.504-.388.176-.12.36-.23.548-.328.103-.054.208-.104.314-.151.057-.025.115-.049.172-.073.399-.159.593-.611.434-1.009-.159-.399-.611-.594-1.01-.434-.075.03-.15.062-.226.095-.136.061-.271.126-.403.195-.242.126-.478.268-.704.421-.225.153-.442.32-.647.497-.204.178-.401.369-.583.568-.184.2-.357.412-.516.632-.16.221-.308.453-.44.689-.134.239-.255.489-.361.743-.106.256-.197.521-.272.788-.076.27-.136.548-.179.827-.053.347-.08.7-.08 1.05 0 3.905 3.177 7.082 7.082 7.082 2.333 0 4.599-1.223 5.773-3.115 1.429-2.303 1.061-5.285-.875-7.093"
                      fill="#fff" fill-rule="nonzero"/>
            </g>
        </g>
    </symbol>
    <symbol viewBox="0 0 93 24" id="logo_text">
        <title>logo_text</title>
        <path d="m45.411 4.046c.393 0 .718.292.769.671l.007.105v12.111c-.036 1.355-1.103 2.458-2.445 2.544l-.169.005h-1.876c-.094 0-.153-.091-.128-.172l.02-.039.881-1.212c.044-.06.108-.102.179-.12l.073-.009h.852c.547 0 .998-.414 1.055-.946l.006-.116v-11.27h-12.496v13.707c0 .079-.051.145-.122.169l-.056.009h-1.196c-.079 0-.145-.051-.169-.122l-.009-.056v-14.483c0-.393.292-.718.671-.769l.105-.007zm75.268-.259c.065-.009.125.026.152.082l.014.046.067.477c.066.47-.265.903-.736.964-1.772.227-6.035.735-10.302.958l-.427.021-.519 3.905h5.17v-2.503c0-.453.339-.827.778-.882l.112-.007h.485c.078 0 .145.051.168.121l.009.056v3.216h6.271c.07 0 .13.045.151.108l.008.05v.438c0 .456-.341.832-.782.887l-.112.007h-5.536v5.11c0 1.388-1.082 2.523-2.448 2.609l-.165.005h-1.209c-.13 0-.213-.129-.173-.243l.025-.047.809-1.121c.051-.071.127-.119.212-.136l.065-.006h.272c.547 0 .998-.414 1.056-.946l.006-.116v-5.11h-6.008c-.213 0-.416-.091-.557-.25-.118-.133-.184-.302-.188-.477l.005-.105.692-5.366c.043-.364.344-.642.709-.657 5.316-.215 10.957-.957 11.926-1.088zm-56.307 7.944c.312 0 .57.23.614.529l.007.092v4.488c0 1.388-1.082 2.523-2.448 2.609l-.165.005h-2.234c-.118 0-.193-.117-.156-.22l.023-.043.842-1.159c.045-.061.11-.104.182-.122l.074-.009h1.269c.547 0 .998-.414 1.056-.946l.006-.116v-3.775l-.755-.002h-.835l-4.549 6.26c-.045.062-.109.104-.182.122l-.074.009h-1.374c-.109 0-.179-.107-.15-.202l.023-.046 4.464-6.142h-2.55l-4.541 6.246c-.053.072-.131.121-.217.138l-.066.006h-1.347c-.113 0-.185-.11-.154-.208l.024-.048 4.46-6.135h-2.497l-1.778 2.432c-.051.07-.127.117-.21.133l-.064.006h-1.363c-.11 0-.181-.107-.151-.204l.024-.047 1.23-1.685 1.238-1.728c.098-.126.24-.209.396-.233l.095-.007h11.833zm36.631 0c.377 0 .689.28.738.644l.007.101v6.233c0 .377-.28.689-.644.738l-.101.007h-10.811c-.377 0-.689-.28-.738-.644l-.007-.101v-6.233c0-.377.28-.689.644-.738l.101-.007zm-16.446-1.96c.075 0 .138.049.161.116l.009.053v.48c0 .429-.321.783-.735.834l-.105.007h-8.539l-3.537 6.703h10.153l-1.765-3.311c-.056-.126.018-.266.142-.299l.056-.007h1.196c.069 0 .133.032.173.086l.026.044 2.037 3.924c.132.298.055.657-.215.875-.108.087-.242.137-.38.153l-.104.006h-12.54c-.322 0-.615-.211-.708-.536-.044-.151-.031-.312.023-.459l.048-.108 3.731-7.07h-4.086c-.469 0-.855-.353-.908-.807l-.006-.107v-.407c0-.075.049-.139.117-.162l.054-.009h15.702zm25.845 3.338h1.088c.122 0 .192.132.13.236-.625 1.054-1.719 3.084-2.887 4.945-.139.221-.372.361-.628.393l-.111.007h-.988c-.167 0-.266-.183-.177-.325 1.035-1.644 2.084-3.707 2.832-4.855.143-.22.374-.361.629-.393l.112-.008h1.088zm8.56 0c.299 0 .577.149.74.4.748 1.148 1.797 3.211 2.832 4.855.089.142-.009.325-.176.325h-.989c-.298 0-.58-.147-.739-.399-1.168-1.861-2.262-3.891-2.886-4.945-.062-.105.008-.236.13-.236zm-18.766 3.172h-9.191v1.795h9.191zm-61.654-8.85c.036 0 .071.013.098.036l.034.041 1.572 2.75 1.572-2.75c.018-.032.047-.055.08-.067l.052-.009h1.368c.1 0 .168.093.149.183l-.017.044-2.346 4.105 2.346 4.106c.05.087.003.192-.085.221l-.047.007h-1.368c-.036 0-.071-.013-.098-.036l-.034-.041-1.572-2.75-1.572 2.75c-.018.032-.046.055-.08.067l-.053.009h-1.368c-.1 0-.168-.093-.149-.183l.017-.045 2.346-4.106-2.346-4.105c-.05-.087-.003-.192.085-.221l.047-.007h1.369zm-3.689 0c.036 0 .071.013.098.036l.034.041 2.383 4.164c.03.052.024.11-.004.155l-.001.006-.001.006-2.389 4.182c-.018.032-.046.055-.08.067l-.053.009h-1.384c-.1 0-.168-.093-.149-.183l.017-.045 2.354-4.12-2.341-4.091c-.05-.087-.003-.192.085-.221l.047-.007h1.384zm65.343 5.678h-9.191v1.795h9.191zm-36.363-9.252c.312 0 .57.23.614.529l.007.092v5.417c0 .312-.23.57-.529.614l-.092.007h-11.435c-.312 0-.569-.23-.614-.529l-.007-.092v-5.417c0-.312.23-.57.529-.614l.092-.007zm31.66-.654c.104 0 .202.044.27.12l.045.062.698 1.216h5.745c.077 0 .143.05.166.119l.009.055v.42c0 .456-.342.833-.783.888l-.112.007h-.932l-1.672 2.935h4.494c.091 0 .168.062.191.145l.007.053v.427c0 .442-.33.806-.758.859l-.109.007h-14.29c-.452 0-.825-.338-.879-.775l-.007-.111v-.408c0-.091.061-.167.144-.19l.052-.007h4.495l-1.672-2.935h-.932c-.456 0-.833-.341-.888-.783l-.007-.112v-.41c0-.081.053-.151.126-.175l.058-.009h5.835l-.665-1.158c-.053-.092-.004-.203.089-.233l.05-.008h1.232zm-32.591 4.604h-9.56v1.467h9.56zm35.982-1.716h-6.574l1.672 2.935h3.23zm-35.982-.992h-9.56v1.467h9.56zm20.301-.498c.082 0 .152.053.177.127l.01.059v.439c0 .441-.33.805-.756.858l-.109.007h-11.614c-.454 0-.829-.34-.884-.779l-.007-.112v-.398c0-.093.062-.17.148-.194l.054-.007z"
              fill-rule="evenodd" transform="translate(-30)"/>
    </symbol>
    <symbol viewBox="0 0 24 24" id="logo_white">
        <title>logo_white</title>
        <path d="m11.9635525 0c6.6074034 0 11.9635526 5.35614915 11.9635526 11.963878 0 6.6070779-5.3561492 11.9632271-11.9635526 11.9632271-6.60707792 0-11.9635525-5.3561492-11.9635525-11.9632271 0-6.60772885 5.35647458-11.963878 11.9635525-11.963878zm1.8123195 4.255648c-1.27072.41952-1.88032 1.60416-1.51584 2.94816.03584.13472.09824.37184.13088.49568-.272.05824-.54176.13824-.80704.24032-1.24128.47776-2.22656 1.53984-2.57088 2.77056-.12288.43744-.16448.89152-.1248 1.34912.0864.98912.61376 1.91008 1.41088 2.464.75072.5216 1.64896.67488 2.52992.43168.62368-.17216 1.17792-.54272 1.56096-1.04288.60608-.792.78688-1.83264.5088-2.92992-.1008-.39904-.22816-.84288-.35136-1.27168-.04448-.1552-.08896-.31104-.1328-.4656.52704.13568 1.01312.392 1.408.76128 1.37216 1.2816 1.6368 3.48928.61504 5.13536-.89696 1.44576-2.6448 2.38048-4.45248 2.38048-3.048 0-5.52768-2.47968-5.52768-5.52768 0-.27104.02112-.54464.0624-.81408.03328-.21696.08-.43296.13888-.6432.05824-.20704.1296-.41312.21184-.61184.08192-.19744.176-.39168.28032-.5776.10304-.18432.21856-.36512.34336-.5376.1232-.17088.25856-.33632.40192-.4928.14272-.15552.296-.30432.45568-.44256s.32928-.2688.50432-.38784c.17568-.12.36-.23008.54816-.32832.10304-.05376.20768-.10432.31392-.15136.05696-.02496.11456-.04928.17248-.07264.39904-.15904.59328-.61088.43424-1.00928-.15872-.39936-.61088-.59392-1.00992-.43424-.0752.02976-.15008.06176-.22624.09504-.13696.0608-.27168.12544-.40384.19456-.2416.12608-.47808.26784-.70368.42144-.22464.15264-.44224.32032-.64672.49728-.20448.17728-.40128.36832-.584.56768-.18368.2-.35712.41248-.51552.632-.16.2208-.30816.4528-.44032.68928-.13408.23904-.25504.48864-.36032.74208-.10592.25568-.19744.52096-.272.78752-.07584.26976-.136.54816-.17888.82656-.05312.3472-.08032.70016-.08032 1.04992 0 3.90496 3.17696 7.0816 7.08192 7.0816 2.33312 0 4.59936-1.22272 5.77312-3.11488 1.42848-2.30144 1.06048-5.28352-.87488-7.09088-.79232-.74016-1.82368-1.1744-2.91072-1.2704-.05792-.21856-.1456-.55296-.2128-.80384-.0512-.1856-.07488-.39584-.02016-.58336.01504-.05248.03872-.09984.06464-.14784.11264-.20928.3232-.3536.5568-.39232.10592-.01792.21504-.01216.31872.01504.1088.0288.2112.08.30112.14752.09376.07136.16736.16288.2528.24256.13888.1296.32512.20896.52992.20896.42944 0 .77728-.34816.77728-.77728 0-.12736-.03104-.24768-.08512-.3536-.0048-.00928-.00992-.01856-.01504-.02752-.0032-.00608-.00704-.01248-.01024-.01856-.08704-.14624-.2128-.2736-.3424-.38464-.24896-.21376-.54336-.37536-.85568-.4752-.1472-.04704-.29856-.08-.45184-.09728-.33728-.03872-.68224-.00352-1.0048.10304zm-.98592 4.94784c.08256.30496.17312.62144.26336.93568.12192.42432.24256.8448.33856 1.22464.11264.44416.16288 1.08256-.23616 1.60352-.17824.23296-.4416.40704-.74048.48992-.54816.1504-.9712-.03104-1.22944-.21024-.4224-.29376-.7024-.78784-.74912-1.32224-.02368-.27072.00096-.53824.07296-.7952.21472-.768.84032-1.43424 1.63296-1.7392.2128-.08192.42944-.14432.64736-.18688z"
              fill-rule="evenodd"/>
    </symbol>
    <symbol viewBox="0 0 24 24" id="mini">
        <title>mini</title>
        <path d="m11.5 13c.8 0 1.5.7 1.5 1.5v2c0 .8-.7 1.5-1.5 1.5h-5c-.8 0-1.5-.7-1.5-1.5v-2c0-.8.7-1.5 1.5-1.5zm7-8c.8 0 1.5.7 1.5 1.5v10c0 .8-.7 1.5-1.5 1.5h-3c-.3 0-.5-.2-.5-.5s.2-.5.5-.5h3c.3 0 .5-.2.5-.5v-10c0-.3-.2-.5-.5-.5h-12c-.3 0-.5.2-.5.5v4c0 .3-.2.5-.5.5s-.5-.2-.5-.5v-4c0-.8.7-1.5 1.5-1.5zm-7 9h-5c-.3 0-.5.2-.5.5v2c0 .3.2.5.5.5h5c.3 0 .5-.2.5-.5v-2c0-.3-.2-.5-.5-.5z"/>
    </symbol>
    <symbol viewBox="0 0 24 24" id="msg">
        <title>msg</title>
        <path d="m18 6h-13c-1.103 0-2 .897-2 2v9c0 1.103.897 2 2 2h13c1.103 0 2-.897 2-2v-9c0-1.103-.897-2-2-2zm1 11c0 .552-.448 1-1 1h-13c-.551 0-1-.448-1-1v-9c0-.551.449-1 1-1h13c.552 0 1 .449 1 1z"/>
        <path d="m16.706 8.096-4.324 3.145c-.528.384-1.236.384-1.765 0l-4.323-3.145c-.224-.163-.537-.113-.698.11-.163.223-.113.536.11.698l4.324 3.145c.439.32.955.479 1.47.479s1.031-.16 1.47-.479l4.324-3.145c.224-.162.272-.475.11-.698-.162-.224-.475-.272-.698-.11z"/>
    </symbol>
    <symbol viewBox="0 0 16 16" id="next">
        <title>next</title>
        <path d="m5.843 8 3.889 3.889c.195.195.195.512 0 .707s-.512.195-.707 0l-4.243-4.242c-.195-.195-.195-.512 0-.707l4.243-4.243c.195-.195.512-.195.707 0s.195.512 0 .707z"
              transform="matrix(-1 0 0 1 16 0)"/>
    </symbol>
    <symbol viewBox="0 0 10 10" id="osx-close">
        <title>osx-close</title>
        <path d="m6.061 4.994l1.97-1.97c.293-.293.293-.768 0-1.061s-.768-.293-1.061 0l-1.97 1.971-1.97-1.97c-.293-.293-.768-.293-1.061 0s-.293.768 0 1.061l1.97 1.97-1.97 1.97c-.293.293-.293.768 0 1.061.146.146.338.22.53.22s.384-.073.53-.22l1.971-1.971 1.97 1.97c.146.146.338.22.53.22s.384-.073.53-.22c.293-.293.293-.768 0-1.061z"/>
    </symbol>
    <symbol viewBox="0 0 13 11" id="osx-restore">
        <title>osx-restore</title>
        <path d="m11 0h-7c-1.104 0-2 .896-2 2-1.104 0-2 .896-2 2v5c0 1.104.896 2 2 2h7c1.104 0 2-.896 2-2 1.104 0 2-.896 2-2v-5c0-1.104-.896-2-2-2m-1 9c0 .552-.448 1-1 1h-7c-.551 0-1-.448-1-1v-5c0-.551.449-1 1-1h7c.552 0 1 .449 1 1zm2-2c0 .552-.448 1-1 1v-4c0-1.104-.896-2-2-2h-6c0-.551.449-1 1-1h7c.552 0 1 .449 1 1z"/>
    </symbol>
    <symbol viewBox="0 0 10 10" id="osx-zoomin">
        <title>osx-zoomin</title>
        <path d="m4 1.5h2v7h-2z"/>
        <path d="m1.5 4h7v2h-7z"/>
    </symbol>
    <symbol viewBox="0 0 10 10" id="osx-zoomout">
        <title>osx-zoomout</title>
        <path d="m1.5 4h7v2h-7z"/>
    </symbol>
    <symbol viewBox="0 0 24 24" id="pc-close">
        <title>pc-close</title>
        <path d="m5.1 6.8 12 12c.2.2.5.2.7 0s.2-.5 0-.7l-12-12c-.2-.1-.5-.1-.7 0-.1.2-.1.5 0 .7zm.7 12.1 12-12c.2-.2.2-.5 0-.7s-.5-.2-.7 0l-12 12c-.2.2-.2.5 0 .7.2.1.5.1.7 0z"
              fill-opacity=".6"/>
    </symbol>
    <symbol viewBox="0 0 24 24" id="pc-restore">
        <title>pc-restore</title>
        <path d="m17 7c.552 0 1 .448 1 1v9c0 .552-.448 1-1 1h-11c-.552 0-1-.448-1-1v-9c0-.552.448-1 1-1zm-11 1v9h11v-9z"/>
        <path d="m17 5c1.657 0 3 1.343 3 3v5.5c0 .276-.224.5-.5.5s-.5-.224-.5-.5v-5.5c0-1.105-.895-2-2-2h-6.5c-.276 0-.5-.224-.5-.5s.224-.5.5-.5z"/>
    </symbol>
    <symbol viewBox="0 0 24 24" id="pc-zoomin">
        <title>pc-zoomin</title>
        <path d="m18 6c.6 0 1 .4 1 1v10c0 .6-.4 1-1 1h-12c-.6 0-1-.4-1-1v-10c0-.6.4-1 1-1zm-12 1v10h12v-10z"
              fill-opacity=".6"/>
    </symbol>
    <symbol viewBox="0 0 24 24" id="pc-zoomout">
        <title>pc-zoomout</title>
        <path clip-rule="evenodd" d="m6.5 12h11c.3 0 .5.2.5.5 0 .3-.2.5-.5.5h-11c-.3 0-.5-.2-.5-.5 0-.3.2-.5.5-.5z"
              fill-opacity=".6" fill-rule="evenodd"/>
    </symbol>
    <symbol viewBox="0 0 24 24" id="restore">
        <title>restore</title>
        <path d="m17 7c.552 0 1 .448 1 1v9c0 .552-.448 1-1 1h-11c-.552 0-1-.448-1-1v-9c0-.552.448-1 1-1zm-11 1v9h11v-9z"/>
        <path d="m17 5c1.657 0 3 1.343 3 3v5.5c0 .276-.224.5-.5.5s-.5-.224-.5-.5v-5.5c0-1.105-.895-2-2-2h-6.5c-.276 0-.5-.224-.5-.5s.224-.5.5-.5z"/>
    </symbol>
    <symbol viewBox="-8 9 13 13" id="search">
        <title>search</title>
        <path d="m-7 14.5c0-2.5 2-4.5 4.5-4.5s4.5 2 4.5 4.5-2 4.5-4.5 4.5-4.5-2-4.5-4.5m11.9 6.6-3.2-3.1c.8-1 1.3-2.2 1.3-3.5 0-3-2.5-5.5-5.5-5.5s-5.5 2.5-5.5 5.5 2.5 5.5 5.5 5.5c1.3 0 2.6-.5 3.5-1.3l3.1 3.1c.1.1.2.1.4.1s.3 0 .4-.1.1-.5 0-.7"/>
    </symbol>
    <symbol viewBox="0 0 24 24" id="search_24">
        <title>search_24</title>
        <path d="m18.9 18.1-3.2-3.1c.8-1 1.3-2.2 1.3-3.5 0-3-2.5-5.5-5.5-5.5s-5.5 2.5-5.5 5.5 2.5 5.5 5.5 5.5c1.3 0 2.6-.5 3.5-1.3l3.1 3.1c.1.1.2.1.4.1s.3 0 .4-.1.1-.5 0-.7zm-11.9-6.6c0-2.5 2-4.5 4.5-4.5s4.5 2 4.5 4.5-2 4.5-4.5 4.5-4.5-2-4.5-4.5z"/>
    </symbol>
    <symbol viewBox="0 0 8 8" id="search_clear">
        <title>search_clear</title>
        <path d="m4.68085548 4l3.17786308-3.17584805c.18837525-.1881218.18837525-.49394031 0-.68206211-.18837524-.18812179-.49460577-.18812179-.68394705 0l-3.17689705 3.17488333-3.173612-3.17488333c-.18837525-.18812179-.49460578-.18812179-.68298102 0-.18837525.1881218-.18837525.49394031 0 .68206211l3.17264596 3.17584805-3.17264596 3.17520142c-.18837525.18908652-.18837525.49490503 0 .68302683.18837524.18812179.49460577.18812179.68298102 0l3.173612-3.17616615 3.17481906 3.17526822c.18934128.1881218.49557181.1881218.68394705 0 .18837525-.18812179.18837525-.49394031 0-.68302683z"
              fill-rule="evenodd"/>
    </symbol>
    <symbol viewBox="0 0 24 24" id="set">
        <title>set</title>
        <path d="m12.7 3c.5 0 .9.3 1 .8l.7 2.7c.4.2.8.4 1.2.7l2.7-.8c.4-.1.9.1 1.1.5l.7 1.2c.3.4.2.9-.1 1.2l-2 2v.7s0 .5 0 .7l2 2c.3.3.4.8.2 1.2l-.7 1.2c-.2.4-.7.6-1.1.5l-2.7-.8c-.4.3-.8.5-1.2.7l-.7 2.7c-.1.4-.5.8-1 .8h-1.4c-.5 0-.9-.3-1-.8l-.7-2.7c-.4-.2-.8-.4-1.2-.7l-2.7.8c-.4.1-.9-.1-1.1-.5l-.7-1.2c-.4-.4-.3-.9 0-1.2l2-2c0-.2 0-.5 0-.7s0-.5 0-.7l-2-2c-.3-.3-.4-.8-.2-1.2l.7-1.2c.2-.4.7-.6 1.1-.5l2.7.8c.4-.3.8-.5 1.2-.7l.7-2.7c.1-.4.5-.8 1-.8zm-.4 1h-.7c-.2 0-.4.2-.5.4l-.6 2.4c-.1.3-.2.5-.5.6-.3.2-.7.4-1 .6-.2.2-.6.2-.9.2l-2.3-.7c-.2-.1-.5 0-.6.2l-.3.6c-.1.2-.1.4.1.6l1.7 1.7c.2.2.3.4.3.7v.1.6s0 .4 0 .6c0 .3-.1.6-.3.8l-1.7 1.7c-.2.2-.2.4-.1.6l.3.6c.1.2.3.3.6.2l2.3-.7c.3-.1.5 0 .8.1l.1.1c.3.2.7.4 1 .6.3.1.5.4.6.7l.6 2.4c.1.2.3.4.5.4h.7c.2 0 .4-.2.5-.4l.6-2.4c.1-.3.2-.5.5-.6l.1-.1c.4-.2.7-.4 1-.6s.6-.2.9-.2l2.3.7c.2.1.5 0 .6-.2l.3-.6c.1-.2.1-.4-.1-.6l-1.7-1.7c-.3-.2-.4-.4-.4-.7v-.1c0-.2 0-.4 0-.6s0-.4 0-.6c0-.3.1-.6.3-.8l1.7-1.7c.2-.2.2-.4.1-.6l-.3-.6c-.1-.2-.3-.3-.6-.2l-2.3.7c-.3.1-.5 0-.8-.1l-.1-.1c-.3-.2-.7-.4-1-.6-.3-.1-.5-.4-.6-.7l-.6-2.4c0-.1-.2-.3-.5-.3zm-.3 5c1.7 0 3 1.3 3 3s-1.3 3-3 3-3-1.3-3-3 1.3-3 3-3zm0 1c-1.1 0-2 .9-2 2s.9 2 2 2 2-.9 2-2-.9-2-2-2z"/>
    </symbol>
    <symbol viewBox="-6 8 16 16" id="skin">
        <title>skin</title>
        <path d="m-1 10.1c.6 1 1.7 1.9 3 1.9s2.4-.9 3-1.9c.1 0 .2.1.3.2.4.2 1 .5 1.6.9l1.9 1c-.2.4-.4 1-.6 1.4l-.8-.4c-.1-.1-.3-.1-.4-.1-.2 0-.4.1-.5.2-.3.2-.5.5-.5.8v7c0 .4-.6 1-1 1h-3-3c-.4 0-1-.6-1-1v-7c0-.3-.2-.7-.5-.8-.2-.1-.3-.2-.5-.2-.1 0-.3 0-.4.1l-.8.4c-.2-.4-.4-.9-.6-1.4l1.9-1c.6-.3 1.2-.6 1.6-.9.1-.1.2-.1.3-.2m6-1.1c-.3 0-.6.1-.7.3-.4.8-1.3 1.6-2.3 1.6s-1.9-.8-2.3-1.6c-.2-.2-.4-.3-.7-.3l-4.8 2.5c-.1.1-.2.2-.2.3v.1c.3.7 1.1 2.6 1.1 2.6.1.1.2.2.3.2s.1 0 .2 0l1.4-.6v7c0 1 1 2 2 2h3 3c1 0 2-1 2-2v-7l1.4.6h.2s.2-.1.3-.2c0 0 .8-1.8 1.1-2.6v-.1c0-.1 0-.3-.2-.3 0 0-4.8-2.5-4.8-2.5z"/>
    </symbol>
    <symbol viewBox="0 0 24 24" id="skin_24">
        <title>skin_24</title>
        <path d="m7 11.653-1.329.442c-.458.164-.971-.018-1.218-.436l-1.315-2.227c-.284-.482-.115-1.098.371-1.373l3.255-1.841c.834-.47 1.775-1.218 2.732-1.218.237.0.441.667.489.899.192.923 1.031 1.601 2.015 1.601s1.823-.678 2.014-1.601c.048-.232.253-.899.49-.899.957.001 1.898.749 2.731 1.22l3.255 1.839c.449.253.632.801.413 1.295l-.041.078-1.314 2.228c-.225.381-.674.569-1.132.462l-.087-.026-1.329-.443v6.844c0 .828-.573 1.5-1.401 1.5h-7.099c-.828.0-1.5-.672-1.5-1.5zm9.743-4.562c-.575-.325-1.213-.736-1.868-.791-.428 1.171-1.567 2.2-2.875 2.2s-2.448-1.029-2.876-2.2c-.655.054-1.292.464-1.867.789l-3.254 1.84 1.311 2.222c.002.003.011.006.019.003l1.899-.682c.326-.118.768.124.768.47v7.573c0 .276.125.5.401.5h7.198c.276.0.401-.224.401-.5v-7.573c0-.346.442-.588.768-.471l1.872.673.03.01c.008.002.015-.001.016-.004l1.3-2.202.011-.02z"/>
    </symbol>
    <symbol viewBox="0 0 24 24" id="zoomin">
        <title>zoomin</title>
        <path d="m18 6c.6 0 1 .4 1 1v10c0 .6-.4 1-1 1h-12c-.6 0-1-.4-1-1v-10c0-.6.4-1 1-1zm-12 1v10h12v-10z"/>
    </symbol>
    <symbol viewBox="0 0 24 24" id="zoomout">
        <title>zoomout</title>
        <path clip-rule="evenodd" d="m6.5 12h11c.3 0 .5.2.5.5 0 .3-.2.5-.5.5h-11c-.3 0-.5-.2-.5-.5 0-.3.2-.5.5-.5z"
              fill-rule="evenodd"/>
    </symbol>
</svg>