<svg xmlns="http://www.w3.org/2000/svg" viewBox="0 0 24 24">
    <title>btn_scan</title>
    <path d="m6.912 16.95c.2-.2.5-.2.7-.1 1.2 1 2.7 1.6 4.2 1.6 3.5 0 6.4-2.8 6.5-6.3v-.2-.6l-1.3 1.3c-.2.2-.5.2-.7 0-.2-.2-.2-.4-.1-.6l.1-.1 2.2-2.2c.2-.2.4-.2.6-.1l.1.1 2.1 2.1c.2.2.2.5 0 .7-.2.2-.4.2-.6.1l-.1-.1-1.3-1.3v.6c0 4.1-3.2 7.4-7.3 7.5h-.2c-1.8 0-3.5-.7-4.9-1.8-.099-.1-.099-.4 0-.6zm-4.3-5.5c.2-.2.4-.2.6-.1l.1.1 1.3 1.3v-.6c0-4.1 3.2-7.4 7.3-7.5h.2c1.8 0 3.5.7 4.9 1.8.2.2.2.5.1.7-.2.2-.5.2-.7.1-1.2-1-2.7-1.6-4.2-1.6-3.5 0-6.4 2.8-6.5 6.3v.2.6l1.3-1.3c.2-.2.5-.2.7 0 .2.2.2.4.1.6l-.2.1-2.1 2.1c-.2.2-.4.2-.6.1l-.1-.1-2.2-2.1c-.1-.2-.1-.5 0-.7z"/>
</svg>