<svg xmlns="http://www.w3.org/2000/svg" viewBox="-288 411.9 18 18" id="artist">
    <title>artist</title>
    <g fill-rule="evenodd">
        <path d="m-273 426.4c0-2.5-1.4-4.6-3.4-5.7.9-.8 1.4-2 1.4-3.3 0-2.5-2-4.5-4.5-4.5s-4.5 2-4.5 4.5c0 1.3.6 2.5 1.4 3.3-2 1.1-3.4 3.2-3.4 5.7v.3.2c0 1.1.9 2 2 2v-1c-.6 0-1-.4-1-1 0-2.8 1.4-4.7 3.3-5.6.6.4 1.4.6 2.2.6s1.5-.2 2.1-.6c2 .8 3.4 2.9 3.4 5.6 0 .6-.4 1-1 1v1c1.1 0 2-.9 2-2v-.2c0-.1 0-.2 0-.3m-6.5-5.5c-1.9 0-3.5-1.6-3.5-3.5s1.6-3.5 3.5-3.5 3.5 1.6 3.5 3.5-1.6 3.5-3.5 3.5"/>
        <path d="m-279.5 422.9c-.8 0-1.5.7-1.5 1.5v1c0 .7.4 1.2 1 1.4v1.6c0 .3.2.5.5.5s.5-.2.5-.5v-1.6c.6-.2 1-.8 1-1.4v-1c0-.8-.7-1.5-1.5-1.5"/>
    </g>
</svg>