<svg xmlns="http://www.w3.org/2000/svg" viewBox="0 0 16 16" id="cloud">
    <title>cloud</title>
    <path d="m8 2c2.5 0 4.5 1.8 4.9 4.1 1.8.4 3.1 2 3.1 3.9 0 2.2-1.8 4-4 4h-8c-.3 0-.7 0-1-.1 0 0-.1 0-.1 0 0 0-.1 0-.1 0 0 0 0 0 0 0-.1 0-.2-.1-.3-.1 0 0-.1 0-.1 0 0 0-.1 0-.1 0 0 0-.1 0-.1-.1 0 0 0 0 0 0 0 0-.1 0-.1-.1 0 0 0 0-.1 0 0 0 0 0-.1 0 0 0-.1-.1-.1-.1 0 0 0 0 0 0 0 0-.1-.1-.1-.1 0 0-.1 0-.1-.1 0 0 0 0-.1 0 0 0-.1 0-.1-.1 0 0 0 0-.1 0 0 0-.1-.1-.1-.1 0 0 0 0 0 0 0 0-.1-.1-.1-.1 0 0 0 0-.1-.1 0 0 0 0-.1-.1 0 0 0-.1-.1-.1 0 0 0-.1-.1-.1 0 0 0 0-.1-.1 0 0 0 0-.1-.1 0 0-.1-.1-.1-.1 0 0 0 0 0-.1 0 0 0-.1-.1-.1 0 0 0 0 0-.1 0 0 0 0 0-.1 0 0 0-.1-.1-.1 0-.1-.1-.2-.1-.3 0-.1-.1-.2-.1-.2-.1-.3-.2-.6-.2-.9 0 0 0-.1 0-.1v0c0-.1 0-.3 0-.4 0-.6.1-1.1.3-1.6 0 0 0 0 0-.1.3-.1.4-.2.5-.3 0-.1.1-.1.1-.2.2-.2.3-.3.4-.5 0 0 0 0 0 0 0 0 .1-.1.1-.1 0 0 0 0 0 0 0 0 .1-.1.1-.1 0 0 0 0 0 0 .1-.1.1-.1.2-.2 0 0 .1 0 .1-.1 0 0 .1 0 .1-.1 0 0 0 0 .1 0 0 0 .1-.1.1-.1 0 0 0 0 0 0 .1-.1.2-.1.3-.1 0 0 .1 0 .1 0 0 0 0 0 .1 0 0 0 .1 0 .1 0 0 0 0 0 .1 0 0 0 .1 0 .1 0 0 0 .1 0 .1 0 0 0 .1 0 .1 0 0 0 0 0 .1 0 0 0 .1 0 .1 0 0 0 0 0 0 0 .4-2.6 2.4-4.4 4.9-4.4zm0 1c-1.8 0-3.4 1.3-3.9 3h-.1c1.5 0 2.8.8 3.5 2-.8-.6-1.9-1-3.2-1h-.3c-.4 0-.8.1-1.1.2 0 0 0 0-.1 0h .1c0 0-.1 0-.1.1h.1c-.1 0-.1 0-.1.1h.1c-.3 0-.5 0-.6.1 0 0 0 0 0 0v0c-.1.1-.2.2-.3.3 0 0 0 0 0 0v0c0 0-.1.1-.1.1l.1-.1c0 0-.1.1-.1.1l.1-.1c0 0-.1.1-.1.1l.1-.1c0 0-.1.1-.1.1v0c0 0-.1.1-.1.1h-.1c0 0-.1.1-.1.1l.1-.1c0 0-.1.1-.1.1v-.1c0 0-.1.1-.1.2l.1-.1c0 0-.1.1-.1.1v0c0 0-.1.1-.1.1l.1-.1c0 0-.1.1-.1.1v-.1c0 0-.1.1-.1.1l.1-.1c0 0-.1.1-.1.1v-.1c0 .1-.1.1-.1.2v-.1c0 0 0 .1-.1.1v0c0 .1 0 .1-.1.2v-.1c0 .1 0 .1-.1.2v0c0 .1-.1.2-.1.3 0 0 0 .1 0 .1v-.1c.3.3.2.5.2.6 0 0 0 0 0 .1v.2c0 0 0 0 0 .1 0 1.7 1.3 3 3 3h8c1.7 0 3-1.3 3-3 0-1.4-1-2.6-2.3-2.9l-.6-.2-.1-.6c-.4-1.9-2.1-3.3-4-3.3z"
          fill-opacity=".8"/>
</svg>