<svg xmlns="http://www.w3.org/2000/svg" viewBox=".5 -4.5 20 20" id="discover">
    <title>discover</title>
    <path d="m12.429 1.394c-.206-.597-.42-1.208-.443-1.281-.19-.621-.191-.754-.064-1.167.164-.533.6-.941 1.339-.941.4 0 .743.143 1.035.388.178.149.295.295.344.377.143.238.45.314.686.171s.312-.452.17-.69c-.102-.17-.287-.401-.561-.63-.46-.387-1.021-.621-1.673-.621-1.231 0-2.012.732-2.294 1.649-.188.61-.184.949.063 1.759.024.078.191.558.371 1.077-1.996.39-3.543 1.998-3.552 4.096-.01 2.162 1.387 3.361 2.925 3.361 1.413 0 2.817-1.094 2.816-2.83 0-.664-.178-1.557-.497-2.665-.094-.328-.2-.67-.317-1.03 2.295.186 4.228 1.871 4.223 4.653-.005 3.371-2.833 5.925-6.26 5.925-3.576 0-6.74-3.092-6.74-7.227 0-1.922.754-3.412 2.021-4.544.447-.399.927-.724 1.407-.979.284-.152.501-.245.615-.285.26-.091.398-.378.307-.64s-.376-.4-.637-.308c-.16.056-.422.168-.753.345-.547.291-1.092.66-1.603 1.116-1.469 1.312-2.357 3.067-2.357 5.295 0 4.697 3.618 8.232 7.74 8.232 3.956 0 7.253-2.979 7.26-6.929.006-3.538-2.619-5.638-5.571-5.677zm-1.655 6.542c-1.016 0-1.932-.786-1.925-2.351.007-1.629 1.259-2.884 2.882-3.139.028.083.053.158.074.222.122.373.231.724.327 1.058.295 1.024.457 1.84.457 2.386.001 1.116-.907 1.824-1.815 1.824z"/>
</svg>