<svg xmlns="http://www.w3.org/2000/svg" viewBox="0 0 16 16" id="dld">
    <title>dld</title>
    <path d="m11.8 3.6c.2-.2.5-.2.7 0 1.2 1.3 2 3 2 4.8 0 3.9-3.1 7-7 7s-7-3.1-7-7c0-1.8.7-3.6 2-4.8.2-.2.5-.2.7 0s .2.5 0 .7c-1.1 1.2-1.7 2.6-1.7 4.2 0 3.3 2.7 6 6 6s6-2.7 6-6c0-1.6-.6-3-1.7-4.2-.2-.2-.2-.5 0-.7zm-4.3-1.6c.3 0 .5.2.5.5v6.5l1.3-1.3c.2-.2.4-.2.6-.1l.1.2c.2.2.2.4.1.6l-.1.1-2.1 2.1c-.2.2-.4.2-.6.1l-.1-.1-2.2-2.1c-.2-.2-.2-.5 0-.7.2-.2.4-.2.6-.1l.1.1 1.3 1.2v-6.5c0-.3.2-.5.5-.5z"
          fill-opacity=".8"/>
</svg>