<svg xmlns="http://www.w3.org/2000/svg" viewBox="0 0 24 24" id="heartbeat">
    <title>heartbeat</title>
    <g transform="translate(3 4.3)">
        <path d="m11.882.5c2.894 0 5.218 2.457 5.218 5.47 0 2.478-1.254 4.588-3.833 6.689-.878.716-1.823 1.395-2.803 2.022-.315.202-.619.388-.903.555-.147.086-.272.157-.351.201-.254.139-.565.139-.819 0-.079-.043-.204-.114-.351-.201-.284-.167-.588-.353-.903-.555-.98-.627-1.925-1.306-2.803-2.022-2.58-2.101-3.834-4.211-3.834-6.689 0-3.013 2.325-5.47 5.218-5.47 1.12 0 2.194.372 3.082 1.054.888-.682 1.961-1.054 3.082-1.054zm-2.827 13.873c.273-.16.565-.34.87-.534.948-.606 1.862-1.264 2.71-1.954 2.366-1.929 3.465-3.777 3.465-5.915 0-2.473-1.89-4.47-4.218-4.47-1.015 0-1.982.381-2.745 1.075l-.337.306-.336-.306c-.764-.694-1.731-1.075-2.746-1.075-2.328 0-4.218 1.997-4.218 4.47 0 2.138 1.099 3.986 3.465 5.914.848.691 1.762 1.348 2.71 1.954.305.195.598.375.87.534.1.058.188.109.255.147.068-.037.155-.088.255-.146z"/>
        <path d="m7.107 5.641c-.165-.099-.374-.094-.534.013l-2.34 1.56c-.23.153-.292.464-.139.693.153.23.464.292.693.139l2.077-1.384 3.629 2.177c.166.099.374.094.535-.013l2.34-1.56c.23-.153.292-.464.139-.693s-.464-.292-.693-.139l-2.077 1.384z"/>
    </g>
</svg>