<svg xmlns="http://www.w3.org/2000/svg" viewBox="0 0 16 16" id="history">
    <title>history</title>
    <path d="m11.5 10c .2 0 .4.2.5.4v.1 4c0 .3-.2.5-.5.5-.2 0-.4-.2-.5-.4v-.1-4c0-.3.2-.5.5-.5zm2 1c .2 0 .4.2.5.4v.1 3c0 .3-.2.5-.5.5-.2 0-.4-.2-.5-.4v-.1-3c0-.3.2-.5.5-.5zm-4 1c .2 0 .4.2.5.4v.1 2c0 .3-.2.5-.5.5-.2 0-.4-.2-.5-.4v-.1-2c0-.3.2-.5.5-.5zm-2-11c3.9 0 7 3.1 7 7 0 .2 0 .4 0 .5 0 .3-.3.5-.5.5-.3 0-.5-.3-.5-.5 0-.2 0-.3 0-.5 0-3.3-2.7-6-6-6s-6 2.7-6 6c0 3.1 2.4 5.7 5.5 6 .3 0 .5.3.5.5 0 .3-.3.5-.5.5-3.6-.3-6.5-3.3-6.5-7 0-3.9 3.1-7 7-7zm0 3c .2 0 .4.2.5.4v.1 3.7l1.8 1.3c.2.2.3.5.1.7-.1.2-.4.3-.6.2h-.1l-2-1.5c-.1-.1-.2-.2-.2-.3v-.1-4c0-.3.2-.5.5-.5z"
          fill-opacity=".8"/>
</svg>