<svg xmlns="http://www.w3.org/2000/svg" viewBox="3 -3 18 18" id="live">
    <title>live</title>
    <path d="m3-3h18v18h-18z" fill="none"/>
    <path d="m11.741-2c-3.31 0-6.627 2.469-7.716 5.743l-.127.382 3.162 1.875-3.161 1.876.127.383c.949 2.852 3.846 5.741 7.546 5.741 4.332 0 8.428-3.888 8.428-8 0-4.187-3.937-8-8.259-8zm-.169 15c-3.065 0-5.506-2.297-6.459-4.682l2.945-1.747c.28 1.934 1.932 3.429 3.942 3.429 2.206 0 4-1.794 4-4s-1.794-4-4-4c-2.01 0-3.662 1.495-3.942 3.429l-2.945-1.746c.948-2.335 3.493-4.683 6.628-4.683 3.799 0 7.259 3.336 7.259 7 0 3.598-3.61 7-7.428 7zm-2.571-7.011c.006-1.649 1.349-2.989 2.999-2.989 1.654 0 3 1.346 3 3s-1.346 3-3 3c-1.65 0-2.993-1.34-2.999-2.989l.019-.011z"/>
    <path d="m12.5 7c.828 0 1.5-.672 1.5-1.5s-.672-1.5-1.5-1.5-1.5.672-1.5 1.5.672 1.5 1.5 1.5"/>
</svg>