<svg xmlns="http://www.w3.org/2000/svg" viewBox="0 0 16 16" id="local">
    <title>local</title>
    <path d="m14 3.4c0 .1 0 .2 0 .3v.1 8.2c0 1.1-.9 2-2 2s-2-.9-2-2 .9-2 2-2c .4 0 .7.1 1 .3v-4.6l-8 1.7v5.6c0 1.1-.9 2-2 2s-2-.9-2-2 .9-2 2-2c .4 0 .7.1 1 .3v-5.7c0-1.1.7-2.1 1.8-2.4h.2l5.6-1.3c1-.2 2.1.5 2.4 1.5zm-11 8.6c-.6 0-1 .4-1 1s .4 1 1 1 1-.4 1-1-.4-1-1-1zm9-1c-.6 0-1 .4-1 1s .4 1 1 1 1-.4 1-1-.4-1-1-1zm-.1-8.1h-.1l-5.6 1.2c-.7.2-1.1.7-1.2 1.4v.1.8l8-1.8v-.7c0-.1 0-.1 0-.2-.1-.5-.6-.9-1.1-.8z"
          fill-opacity=".8"/>
</svg>