<svg xmlns="http://www.w3.org/2000/svg" viewBox="0 0 20 20" id="lock">
    <title>lock</title>
    <path d="m6 8c-.828 0-1.5.671-1.5 1.5s.672 1.5 1.5 1.5c.829 0 1.5-.671 1.5-1.5s-.671-1.5-1.5-1.5zm5 3.592c0 .776-.631 1.408-1.408 1.408h-7.184c-.777 0-1.408-.632-1.408-1.408v-4.184c0-.776.631-1.408 1.408-1.408h7.184c.777 0 1.408.632 1.408 1.408zm-8-7.592c0-1.654 1.346-3 3-3s3 1.346 3 3v1h-6zm7 1.041v-1.041c0-2.209-1.791-4-4-4s-4 1.791-4 4v1.041c-1.135.195-2 1.177-2 2.367v4.184c0 1.33 1.078 2.408 2.408 2.408h7.184c1.33 0 2.408-1.078 2.408-2.408v-4.184c0-1.19-.865-2.173-2-2.367z"
          transform="translate(4 3)"/>
</svg>