<svg xmlns="http://www.w3.org/2000/svg" viewBox="0 0 16 16" id="myfav">
    <title>myfav</title>
    <path d="m11.4 7.2l1.2 2 2.3.5c.4.1.5.5.3.8l-1.6 1.7.2 2.3c0 .4-.3.7-.7.5l-2.1-.9-2.2.9c-.4.2-.7-.1-.7-.5l.2-2.3-1.6-1.7c-.3-.3-.1-.7.3-.8l2.3-.5 1.2-2c .3-.3.7-.3.9 0zm-3.9-6.2c1.9 0 3.5 1.6 3.5 3.5s-1.6 3.5-3.5 3.5h.1c0 0 0 0-.1 0-2.8 0-4.5 2.4-4.5 6.5 0 .3-.2.5-.5.5s-.5-.2-.5-.5c0-3.6 1.3-6.2 3.5-7.1-.9-.6-1.5-1.7-1.5-2.9 0-1.9 1.6-3.5 3.5-3.5zm3.5 7.5l-.9 1.4c-.1.1-.2.2-.3.2l-1.7.3 1.1 1.2c.1.1.1.2.1.4l-.2 1.6 1.6-.7c.1-.1.3-.1.4 0l1.6.7-.2-1.6c0-.1 0-.3.1-.4l1.1-1.2-1.7-.3c-.1 0-.3-.1-.3-.2zm-3.5-6.5c-1.4 0-2.5 1.1-2.5 2.5s1.1 2.5 2.5 2.5 2.5-1.1 2.5-2.5-1.1-2.5-2.5-2.5z"
          fill-opacity=".8"/>
</svg>