<svg xmlns="http://www.w3.org/2000/svg" viewBox="0 0 16 16" id="radio">
    <title>radio</title>
    <path d="m7 6.6c0-.6.8-.7 1-.2.4 1.1 1 1.9 1.6 2.3.2.1.3.4.2.7s-.4.2-.7.1c-.4-.2-.8-.6-1.1-1v0 5 0c0 1.1-.9 2-2 2s-2-.9-2-2 .9-2 2-2c .4 0 .7.1 1 .3zm1-6.1c4.1 0 7.5 3.4 7.5 7.5 0 3.3-2.2 6.2-5.3 7.2-.3.1-.5-.1-.6-.3s.1-.5.3-.6c2.7-.8 4.6-3.3 4.6-6.2 0-3.6-2.9-6.5-6.5-6.5s-6.5 2.8-6.5 6.4c0 1.7.6 3.2 1.7 4.4.2.2.2.5 0 .7-.2.2-.5.2-.7 0-1.3-1.4-2-3.2-2-5.1 0-4.1 3.4-7.5 7.5-7.5zm-2 12c-.6 0-1 .4-1 1s .4 1 1 1 1-.4 1-1-.4-1-1-1zm2-9c2.5 0 4.5 2 4.5 4.5 0 1.6-.8 3-2.1 3.8-.2.1-.5.1-.7-.2-.1-.2-.1-.5.2-.7 1-.6 1.7-1.8 1.7-3 0-1.9-1.6-3.5-3.5-3.5s-3.6 1.7-3.6 3.6c0 .6.2 1.2.5 1.8.1.2 0 .5-.2.7-.2.1-.5.1-.7-.2-.4-.7-.6-1.5-.6-2.3 0-2.5 2-4.5 4.5-4.5z"
          fill-opacity=".8"/>
</svg>