<svg xmlns="http://www.w3.org/2000/svg">
    <symbol viewBox="-288 411.9 18 18" id="artist">
        <title>artist</title>
        <g fill-rule="evenodd">
            <path d="m-273 426.4c0-2.5-1.4-4.6-3.4-5.7.9-.8 1.4-2 1.4-3.3 0-2.5-2-4.5-4.5-4.5s-4.5 2-4.5 4.5c0 1.3.6 2.5 1.4 3.3-2 1.1-3.4 3.2-3.4 5.7v.3.2c0 1.1.9 2 2 2v-1c-.6 0-1-.4-1-1 0-2.8 1.4-4.7 3.3-5.6.6.4 1.4.6 2.2.6s1.5-.2 2.1-.6c2 .8 3.4 2.9 3.4 5.6 0 .6-.4 1-1 1v1c1.1 0 2-.9 2-2v-.2c0-.1 0-.2 0-.3m-6.5-5.5c-1.9 0-3.5-1.6-3.5-3.5s1.6-3.5 3.5-3.5 3.5 1.6 3.5 3.5-1.6 3.5-3.5 3.5"/>
            <path d="m-279.5 422.9c-.8 0-1.5.7-1.5 1.5v1c0 .7.4 1.2 1 1.4v1.6c0 .3.2.5.5.5s.5-.2.5-.5v-1.6c.6-.2 1-.8 1-1.4v-1c0-.8-.7-1.5-1.5-1.5"/>
        </g>
    </symbol>
    <symbol viewBox="0 0 16 16" id="cloud">
        <title>cloud</title>
        <path d="m8 2c2.5 0 4.5 1.8 4.9 4.1 1.8.4 3.1 2 3.1 3.9 0 2.2-1.8 4-4 4h-8c-.3 0-.7 0-1-.1 0 0-.1 0-.1 0 0 0-.1 0-.1 0 0 0 0 0 0 0-.1 0-.2-.1-.3-.1 0 0-.1 0-.1 0 0 0-.1 0-.1 0 0 0-.1 0-.1-.1 0 0 0 0 0 0 0 0-.1 0-.1-.1 0 0 0 0-.1 0 0 0 0 0-.1 0 0 0-.1-.1-.1-.1 0 0 0 0 0 0 0 0-.1-.1-.1-.1 0 0-.1 0-.1-.1 0 0 0 0-.1 0 0 0-.1 0-.1-.1 0 0 0 0-.1 0 0 0-.1-.1-.1-.1 0 0 0 0 0 0 0 0-.1-.1-.1-.1 0 0 0 0-.1-.1 0 0 0 0-.1-.1 0 0 0-.1-.1-.1 0 0 0-.1-.1-.1 0 0 0 0-.1-.1 0 0 0 0-.1-.1 0 0-.1-.1-.1-.1 0 0 0 0 0-.1 0 0 0-.1-.1-.1 0 0 0 0 0-.1 0 0 0 0 0-.1 0 0 0-.1-.1-.1 0-.1-.1-.2-.1-.3 0-.1-.1-.2-.1-.2-.1-.3-.2-.6-.2-.9 0 0 0-.1 0-.1v0c0-.1 0-.3 0-.4 0-.6.1-1.1.3-1.6 0 0 0 0 0-.1.3-.1.4-.2.5-.3 0-.1.1-.1.1-.2.2-.2.3-.3.4-.5 0 0 0 0 0 0 0 0 .1-.1.1-.1 0 0 0 0 0 0 0 0 .1-.1.1-.1 0 0 0 0 0 0 .1-.1.1-.1.2-.2 0 0 .1 0 .1-.1 0 0 .1 0 .1-.1 0 0 0 0 .1 0 0 0 .1-.1.1-.1 0 0 0 0 0 0 .1-.1.2-.1.3-.1 0 0 .1 0 .1 0 0 0 0 0 .1 0 0 0 .1 0 .1 0 0 0 0 0 .1 0 0 0 .1 0 .1 0 0 0 .1 0 .1 0 0 0 .1 0 .1 0 0 0 0 0 .1 0 0 0 .1 0 .1 0 0 0 0 0 0 0 .4-2.6 2.4-4.4 4.9-4.4zm0 1c-1.8 0-3.4 1.3-3.9 3h-.1c1.5 0 2.8.8 3.5 2-.8-.6-1.9-1-3.2-1h-.3c-.4 0-.8.1-1.1.2 0 0 0 0-.1 0h .1c0 0-.1 0-.1.1h.1c-.1 0-.1 0-.1.1h.1c-.3 0-.5 0-.6.1 0 0 0 0 0 0v0c-.1.1-.2.2-.3.3 0 0 0 0 0 0v0c0 0-.1.1-.1.1l.1-.1c0 0-.1.1-.1.1l.1-.1c0 0-.1.1-.1.1l.1-.1c0 0-.1.1-.1.1v0c0 0-.1.1-.1.1h-.1c0 0-.1.1-.1.1l.1-.1c0 0-.1.1-.1.1v-.1c0 0-.1.1-.1.2l.1-.1c0 0-.1.1-.1.1v0c0 0-.1.1-.1.1l.1-.1c0 0-.1.1-.1.1v-.1c0 0-.1.1-.1.1l.1-.1c0 0-.1.1-.1.1v-.1c0 .1-.1.1-.1.2v-.1c0 0 0 .1-.1.1v0c0 .1 0 .1-.1.2v-.1c0 .1 0 .1-.1.2v0c0 .1-.1.2-.1.3 0 0 0 .1 0 .1v-.1c.3.3.2.5.2.6 0 0 0 0 0 .1v.2c0 0 0 0 0 .1 0 1.7 1.3 3 3 3h8c1.7 0 3-1.3 3-3 0-1.4-1-2.6-2.3-2.9l-.6-.2-.1-.6c-.4-1.9-2.1-3.3-4-3.3z"
              fill-opacity=".8"/>
    </symbol>
    <symbol viewBox=".5 -4.5 20 20" id="discover">
        <title>discover</title>
        <path d="m12.429 1.394c-.206-.597-.42-1.208-.443-1.281-.19-.621-.191-.754-.064-1.167.164-.533.6-.941 1.339-.941.4 0 .743.143 1.035.388.178.149.295.295.344.377.143.238.45.314.686.171s.312-.452.17-.69c-.102-.17-.287-.401-.561-.63-.46-.387-1.021-.621-1.673-.621-1.231 0-2.012.732-2.294 1.649-.188.61-.184.949.063 1.759.024.078.191.558.371 1.077-1.996.39-3.543 1.998-3.552 4.096-.01 2.162 1.387 3.361 2.925 3.361 1.413 0 2.817-1.094 2.816-2.83 0-.664-.178-1.557-.497-2.665-.094-.328-.2-.67-.317-1.03 2.295.186 4.228 1.871 4.223 4.653-.005 3.371-2.833 5.925-6.26 5.925-3.576 0-6.74-3.092-6.74-7.227 0-1.922.754-3.412 2.021-4.544.447-.399.927-.724 1.407-.979.284-.152.501-.245.615-.285.26-.091.398-.378.307-.64s-.376-.4-.637-.308c-.16.056-.422.168-.753.345-.547.291-1.092.66-1.603 1.116-1.469 1.312-2.357 3.067-2.357 5.295 0 4.697 3.618 8.232 7.74 8.232 3.956 0 7.253-2.979 7.26-6.929.006-3.538-2.619-5.638-5.571-5.677zm-1.655 6.542c-1.016 0-1.932-.786-1.925-2.351.007-1.629 1.259-2.884 2.882-3.139.028.083.053.158.074.222.122.373.231.724.327 1.058.295 1.024.457 1.84.457 2.386.001 1.116-.907 1.824-1.815 1.824z"/>
    </symbol>
    <symbol viewBox="0 0 16 16" id="dld">
        <title>dld</title>
        <path d="m11.8 3.6c.2-.2.5-.2.7 0 1.2 1.3 2 3 2 4.8 0 3.9-3.1 7-7 7s-7-3.1-7-7c0-1.8.7-3.6 2-4.8.2-.2.5-.2.7 0s .2.5 0 .7c-1.1 1.2-1.7 2.6-1.7 4.2 0 3.3 2.7 6 6 6s6-2.7 6-6c0-1.6-.6-3-1.7-4.2-.2-.2-.2-.5 0-.7zm-4.3-1.6c.3 0 .5.2.5.5v6.5l1.3-1.3c.2-.2.4-.2.6-.1l.1.2c.2.2.2.4.1.6l-.1.1-2.1 2.1c-.2.2-.4.2-.6.1l-.1-.1-2.2-2.1c-.2-.2-.2-.5 0-.7.2-.2.4-.2.6-.1l.1.1 1.3 1.2v-6.5c0-.3.2-.5.5-.5z"
              fill-opacity=".8"/>
    </symbol>
    <symbol viewBox="0 0 7 5" id="down">
        <title>down</title>
        <path d="m.6 1.3 2.6 2.7c.2.2.5.2.6 0l2.6-2.7c.2-.2.1-.6-.3-.6h-5.2c-.4 0-.5.4-.3.6z"/>
    </symbol>
    <symbol viewBox="-4 6 20 20" id="fm">
        <title>fm</title>
        <path d="m8 16.4c0 1.1-.9 2-2 2s-2-.9-2-2 .9-2 2-2 2 .9 2 2zm-6.1 6.8c-.1 0-.2 0-.3-.1-2.3-1.5-3.6-4-3.6-6.7 0-2.5 1.1-4.8 3.1-6.3.2-.2.5-.1.7.1s.1.5-.1.7c-1.7 1.3-2.7 3.4-2.7 5.5 0 2.4 1.2 4.5 3.2 5.8.2.2.3.5.1.7-.1.2-.3.3-.4.3zm8.2 0c-.2 0-.3-.1-.4-.2-.2-.2-.1-.5.1-.7 2-1.3 3.2-3.5 3.2-5.8 0-2.2-1-4.2-2.7-5.5-.2-.2-.3-.5-.1-.7s.5-.3.7-.1c2 1.5 3.1 3.8 3.1 6.3 0 2.7-1.3 5.2-3.6 6.7-.1 0-.2 0-.3 0zm-1.7-2.5c-.2 0-.3-.1-.4-.2-.1-.2-.1-.5.2-.7 1.2-.7 1.9-2 1.9-3.4 0-1.2-.5-2.3-1.5-3.1-.2-.2-.2-.5-.1-.7.2-.2.5-.2.7-.1 1.2 1 1.8 2.4 1.8 3.9 0 1.7-.9 3.3-2.4 4.2-.1.1-.1.1-.2.1zm-4.8 0c-.1 0-.2 0-.3-.1-1.4-.9-2.3-2.4-2.3-4.2 0-1.5.7-2.9 1.8-3.9.2-.2.5-.1.7.1s.1.5-.1.7c-.9.8-1.4 1.9-1.4 3.1 0 1.4.7 2.6 1.9 3.4.2.1.3.5.2.7s-.3.2-.5.2z"/>
    </symbol>
    <symbol viewBox="-4 6 20 20" id="friend">
        <title>friend</title>
        <path d="m6.1 16.4c1.1-.7 1.9-2 1.9-3.4 0-2.2-1.8-4-4-4s-4 1.8-4 4c0 1.4.8 2.7 1.9 3.4-2.3.8-3.9 3-3.9 5.6v.5c0 .3.2.5.5.5s.5-.2.5-.5v-.5c0-2.8 2.2-5 5-5s5 2.2 5 5v.5c0 .3.2.5.5.5s.5-.2.5-.5v-.5c0-2.6-1.6-4.8-3.9-5.6zm-5.1-3.4c0-1.7 1.3-3 3-3s3 1.3 3 3-1.3 3-3 3-3-1.3-3-3z"/>
        <path d="m10.5 15.5c1.1-.8 1.5-2 1.5-3-.1-2-1.6-3.5-3.5-3.5-.3 0-.5.2-.5.5s.2.5.5.5c1.4 0 2.4 1.1 2.5 2.5 0 .6-.3 1.9-1.7 2.5-.2.1-.3.3-.3.5s.1.4.3.5 4 1.5 3.7 6v.5c0 .3.2.5.5.5s.5-.2.5-.5v-.5c.3-3.8-2.1-5.8-3.5-6.5z"/>
    </symbol>
    <symbol viewBox="0 0 24 24" id="heartbeat">
        <title>heartbeat</title>
        <g transform="translate(3 4.3)">
            <path d="m11.882.5c2.894 0 5.218 2.457 5.218 5.47 0 2.478-1.254 4.588-3.833 6.689-.878.716-1.823 1.395-2.803 2.022-.315.202-.619.388-.903.555-.147.086-.272.157-.351.201-.254.139-.565.139-.819 0-.079-.043-.204-.114-.351-.201-.284-.167-.588-.353-.903-.555-.98-.627-1.925-1.306-2.803-2.022-2.58-2.101-3.834-4.211-3.834-6.689 0-3.013 2.325-5.47 5.218-5.47 1.12 0 2.194.372 3.082 1.054.888-.682 1.961-1.054 3.082-1.054zm-2.827 13.873c.273-.16.565-.34.87-.534.948-.606 1.862-1.264 2.71-1.954 2.366-1.929 3.465-3.777 3.465-5.915 0-2.473-1.89-4.47-4.218-4.47-1.015 0-1.982.381-2.745 1.075l-.337.306-.336-.306c-.764-.694-1.731-1.075-2.746-1.075-2.328 0-4.218 1.997-4.218 4.47 0 2.138 1.099 3.986 3.465 5.914.848.691 1.762 1.348 2.71 1.954.305.195.598.375.87.534.1.058.188.109.255.147.068-.037.155-.088.255-.146z"/>
            <path d="m7.107 5.641c-.165-.099-.374-.094-.534.013l-2.34 1.56c-.23.153-.292.464-.139.693.153.23.464.292.693.139l2.077-1.384 3.629 2.177c.166.099.374.094.535-.013l2.34-1.56c.23-.153.292-.464.139-.693s-.464-.292-.693-.139l-2.077 1.384z"/>
        </g>
    </symbol>
    <symbol viewBox="0 0 16 16" id="history">
        <title>history</title>
        <path d="m11.5 10c .2 0 .4.2.5.4v.1 4c0 .3-.2.5-.5.5-.2 0-.4-.2-.5-.4v-.1-4c0-.3.2-.5.5-.5zm2 1c .2 0 .4.2.5.4v.1 3c0 .3-.2.5-.5.5-.2 0-.4-.2-.5-.4v-.1-3c0-.3.2-.5.5-.5zm-4 1c .2 0 .4.2.5.4v.1 2c0 .3-.2.5-.5.5-.2 0-.4-.2-.5-.4v-.1-2c0-.3.2-.5.5-.5zm-2-11c3.9 0 7 3.1 7 7 0 .2 0 .4 0 .5 0 .3-.3.5-.5.5-.3 0-.5-.3-.5-.5 0-.2 0-.3 0-.5 0-3.3-2.7-6-6-6s-6 2.7-6 6c0 3.1 2.4 5.7 5.5 6 .3 0 .5.3.5.5 0 .3-.3.5-.5.5-3.6-.3-6.5-3.3-6.5-7 0-3.9 3.1-7 7-7zm0 3c .2 0 .4.2.5.4v.1 3.7l1.8 1.3c.2.2.3.5.1.7-.1.2-.4.3-.6.2h-.1l-2-1.5c-.1-.1-.2-.2-.2-.3v-.1-4c0-.3.2-.5.5-.5z"
              fill-opacity=".8"/>
    </symbol>
    <symbol viewBox="3 -3 18 18" id="live">
        <title>live</title>
        <path d="m3-3h18v18h-18z" fill="none"/>
        <path d="m11.741-2c-3.31 0-6.627 2.469-7.716 5.743l-.127.382 3.162 1.875-3.161 1.876.127.383c.949 2.852 3.846 5.741 7.546 5.741 4.332 0 8.428-3.888 8.428-8 0-4.187-3.937-8-8.259-8zm-.169 15c-3.065 0-5.506-2.297-6.459-4.682l2.945-1.747c.28 1.934 1.932 3.429 3.942 3.429 2.206 0 4-1.794 4-4s-1.794-4-4-4c-2.01 0-3.662 1.495-3.942 3.429l-2.945-1.746c.948-2.335 3.493-4.683 6.628-4.683 3.799 0 7.259 3.336 7.259 7 0 3.598-3.61 7-7.428 7zm-2.571-7.011c.006-1.649 1.349-2.989 2.999-2.989 1.654 0 3 1.346 3 3s-1.346 3-3 3c-1.65 0-2.993-1.34-2.999-2.989l.019-.011z"/>
        <path d="m12.5 7c.828 0 1.5-.672 1.5-1.5s-.672-1.5-1.5-1.5-1.5.672-1.5 1.5.672 1.5 1.5 1.5"/>
    </symbol>
    <symbol viewBox="0 0 16 16" id="local">
        <title>local</title>
        <path d="m14 3.4c0 .1 0 .2 0 .3v.1 8.2c0 1.1-.9 2-2 2s-2-.9-2-2 .9-2 2-2c .4 0 .7.1 1 .3v-4.6l-8 1.7v5.6c0 1.1-.9 2-2 2s-2-.9-2-2 .9-2 2-2c .4 0 .7.1 1 .3v-5.7c0-1.1.7-2.1 1.8-2.4h.2l5.6-1.3c1-.2 2.1.5 2.4 1.5zm-11 8.6c-.6 0-1 .4-1 1s .4 1 1 1 1-.4 1-1-.4-1-1-1zm9-1c-.6 0-1 .4-1 1s .4 1 1 1 1-.4 1-1-.4-1-1-1zm-.1-8.1h-.1l-5.6 1.2c-.7.2-1.1.7-1.2 1.4v.1.8l8-1.8v-.7c0-.1 0-.1 0-.2-.1-.5-.6-.9-1.1-.8z"
              fill-opacity=".8"/>
    </symbol>
    <symbol viewBox="0 0 20 20" id="lock">
        <title>lock</title>
        <path d="m6 8c-.828 0-1.5.671-1.5 1.5s.672 1.5 1.5 1.5c.829 0 1.5-.671 1.5-1.5s-.671-1.5-1.5-1.5zm5 3.592c0 .776-.631 1.408-1.408 1.408h-7.184c-.777 0-1.408-.632-1.408-1.408v-4.184c0-.776.631-1.408 1.408-1.408h7.184c.777 0 1.408.632 1.408 1.408zm-8-7.592c0-1.654 1.346-3 3-3s3 1.346 3 3v1h-6zm7 1.041v-1.041c0-2.209-1.791-4-4-4s-4 1.791-4 4v1.041c-1.135.195-2 1.177-2 2.367v4.184c0 1.33 1.078 2.408 2.408 2.408h7.184c1.33 0 2.408-1.078 2.408-2.408v-4.184c0-1.19-.865-2.173-2-2.367z"
              transform="translate(4 3)"/>
    </symbol>
    <symbol viewBox="0 0 20 20" id="love">
        <title>love</title>
        <path d="m10 17c-.1 0-.3 0-.4-.1-.1 0-.2-.1-.3-.2-.2-.1-.5-.3-.8-.5-.9-.6-1.8-1.2-2.5-1.9-2.4-2-3.5-4-3.5-6.2 0-2.8 2.1-5.1 4.7-5.1 1 0 2 .3 2.8 1 .8-.6 1.8-1 2.8-1 2.6 0 4.7 2.3 4.7 5.1 0 2.3-1.1 4.2-3.5 6.2-.8.7-1.6 1.3-2.5 1.9-.3.2-.6.4-.8.5s-.3.2-.3.2c-.1.1-.3.1-.4.1zm-2.8-13c-2 0-3.7 1.8-3.7 4.1 0 2 1 3.7 3.1 5.5.8.6 1.6 1.2 2.4 1.8.3.2.5.4.8.5.1 0 .1.1.2.1s.1-.1.2-.1c.2-.1.5-.3.8-.5.9-.6 1.7-1.2 2.4-1.8 2.1-1.8 3.1-3.5 3.1-5.5 0-2.3-1.7-4.1-3.7-4.1-.9 0-1.7.3-2.4 1l-.4.3-.3-.3c-.7-.7-1.6-1-2.5-1z"/>
    </symbol>
    <symbol viewBox="-4 6 20 20" id="mv">
        <title>mv</title>
        <path d="m21.7 22.1c-.3-.2-.7 0-.7.4v4c0 .4.4.6.7.4l3.1-2c.3-.2.3-.6 0-.8zm7.3 5.4c0 1.4-1.1 2.5-2.5 2.5h-8c-1.4 0-2.5-1.1-2.5-2.5v-6c0-1.4 1.1-2.5 2.5-2.5h8c1.4 0 2.5 1.1 2.5 2.5zm-10.5-9.5c-1.9 0-3.5 1.6-3.5 3.5v6c0 1.9 1.6 3.5 3.5 3.5h8c1.9 0 3.5-1.6 3.5-3.5v-6c0-1.9-1.6-3.5-3.5-3.5z"
              transform="translate(-16 -8)"/>
    </symbol>
    <symbol viewBox="0 0 16 16" id="myfav">
        <title>myfav</title>
        <path d="m11.4 7.2l1.2 2 2.3.5c.4.1.5.5.3.8l-1.6 1.7.2 2.3c0 .4-.3.7-.7.5l-2.1-.9-2.2.9c-.4.2-.7-.1-.7-.5l.2-2.3-1.6-1.7c-.3-.3-.1-.7.3-.8l2.3-.5 1.2-2c .3-.3.7-.3.9 0zm-3.9-6.2c1.9 0 3.5 1.6 3.5 3.5s-1.6 3.5-3.5 3.5h.1c0 0 0 0-.1 0-2.8 0-4.5 2.4-4.5 6.5 0 .3-.2.5-.5.5s-.5-.2-.5-.5c0-3.6 1.3-6.2 3.5-7.1-.9-.6-1.5-1.7-1.5-2.9 0-1.9 1.6-3.5 3.5-3.5zm3.5 7.5l-.9 1.4c-.1.1-.2.2-.3.2l-1.7.3 1.1 1.2c.1.1.1.2.1.4l-.2 1.6 1.6-.7c.1-.1.3-.1.4 0l1.6.7-.2-1.6c0-.1 0-.3.1-.4l1.1-1.2-1.7-.3c-.1 0-.3-.1-.3-.2zm-3.5-6.5c-1.4 0-2.5 1.1-2.5 2.5s1.1 2.5 2.5 2.5 2.5-1.1 2.5-2.5-1.1-2.5-2.5-2.5z"
              fill-opacity=".8"/>
    </symbol>
    <symbol viewBox="0 0 28 9" id="new">
        <title>new</title>
        <path d="m5 3v-1h-1v5h1v-3h1v-1zm1 1v1h1v-1zm2 1h-1v1h1v1h1v-5h-1zm3 2h4v-1h-3v-1h3v-1h-3v-1h3v-1h-4zm6-5v4h1v-4zm2 4h1v-3h-1zm1-4v1h1v-1zm1 1v3h1v-3zm2-1v4h1v-4zm-1 5h1v-1h-1zm-4 0h1v-1h-1z"
              fill-rule="evenodd"/>
    </symbol>
    <symbol viewBox="0 11 28 9" id="new_bg">
        <title>new_bg</title>
        <path d="m23.5 11h-19c-2.5 0-4.5 2-4.5 4.5s2 4.5 4.5 4.5h19c2.5 0 4.5-2 4.5-4.5s-2-4.5-4.5-4.5z"/>
    </symbol>
    <symbol viewBox="0 0 16 16" id="radio">
        <title>radio</title>
        <path d="m7 6.6c0-.6.8-.7 1-.2.4 1.1 1 1.9 1.6 2.3.2.1.3.4.2.7s-.4.2-.7.1c-.4-.2-.8-.6-1.1-1v0 5 0c0 1.1-.9 2-2 2s-2-.9-2-2 .9-2 2-2c .4 0 .7.1 1 .3zm1-6.1c4.1 0 7.5 3.4 7.5 7.5 0 3.3-2.2 6.2-5.3 7.2-.3.1-.5-.1-.6-.3s.1-.5.3-.6c2.7-.8 4.6-3.3 4.6-6.2 0-3.6-2.9-6.5-6.5-6.5s-6.5 2.8-6.5 6.4c0 1.7.6 3.2 1.7 4.4.2.2.2.5 0 .7-.2.2-.5.2-.7 0-1.3-1.4-2-3.2-2-5.1 0-4.1 3.4-7.5 7.5-7.5zm-2 12c-.6 0-1 .4-1 1s .4 1 1 1 1-.4 1-1-.4-1-1-1zm2-9c2.5 0 4.5 2 4.5 4.5 0 1.6-.8 3-2.1 3.8-.2.1-.5.1-.7-.2-.1-.2-.1-.5.2-.7 1-.6 1.7-1.8 1.7-3 0-1.9-1.6-3.5-3.5-3.5s-3.6 1.7-3.6 3.6c0 .6.2 1.2.5 1.8.1.2 0 .5-.2.7-.2.1-.5.1-.7-.2-.4-.7-.6-1.5-.6-2.3 0-2.5 2-4.5 4.5-4.5z"
              fill-opacity=".8"/>
    </symbol>
    <symbol viewBox="-4 6 20 20" id="song">
        <title>song</title>
        <path d="m23 25.5c0-.3-.2-.5-.5-.5h-7c-.3 0-.5.2-.5.5s.2.5.5.5h7c.3 0 .5-.2.5-.5zm-7.5-5.5h7c.3 0 .5-.2.5-.5s-.2-.5-.5-.5h-7c-.3 0-.5.2-.5.5s.2.5.5.5zm0 3h7c.3 0 .5-.2.5-.5s-.2-.5-.5-.5h-7c-.3 0-.5.2-.5.5s.2.5.5.5zm9.3 6.2c-.2.3-.6.6-1 .7-.2.1-.4.1-.6.1-.6 0-1-.3-1.2-.6-.1-.3.1-.6.2-.7.2-.3.6-.6 1-.7.2-.1.4-.1.6-.1.6 0 1 .3 1.2.6.1.3-.1.5-.2.7zm.2-11.2v9.1.1c-.3-.2-.7-.3-1.2-.3-.3 0-.6 0-.9.1-1.3.4-2.2 1.6-1.8 2.7.3.8 1.1 1.3 2.1 1.3.3 0 .6 0 .9-.1 1.2-.4 2-1.4 1.9-2.5 0 0 0 0 0-.1 0 0 0 0 0-.1v-8.5l3-.8v-2z"
              transform="translate(-16 -8)"/>
    </symbol>
    <symbol viewBox="-9 13 10 6" id="up">
        <title>up</title>
        <path d="m0 17v-1h-1v-1h-1v-1h-1v-1h-1-1v1h-1v1h-1v1h-1v1h-1v2h1v-1h1v-1h1v-1h1v-1h1 1v1h1v1h1v1h1v1h1v-2z"/>
    </symbol>
</svg>