<svg xmlns="http://www.w3.org/2000/svg" viewBox="-4 6 20 20" id="song">
    <title>song</title>
    <path d="m23 25.5c0-.3-.2-.5-.5-.5h-7c-.3 0-.5.2-.5.5s.2.5.5.5h7c.3 0 .5-.2.5-.5zm-7.5-5.5h7c.3 0 .5-.2.5-.5s-.2-.5-.5-.5h-7c-.3 0-.5.2-.5.5s.2.5.5.5zm0 3h7c.3 0 .5-.2.5-.5s-.2-.5-.5-.5h-7c-.3 0-.5.2-.5.5s.2.5.5.5zm9.3 6.2c-.2.3-.6.6-1 .7-.2.1-.4.1-.6.1-.6 0-1-.3-1.2-.6-.1-.3.1-.6.2-.7.2-.3.6-.6 1-.7.2-.1.4-.1.6-.1.6 0 1 .3 1.2.6.1.3-.1.5-.2.7zm.2-11.2v9.1.1c-.3-.2-.7-.3-1.2-.3-.3 0-.6 0-.9.1-1.3.4-2.2 1.6-1.8 2.7.3.8 1.1 1.3 2.1 1.3.3 0 .6 0 .9-.1 1.2-.4 2-1.4 1.9-2.5 0 0 0 0 0-.1 0 0 0 0 0-.1v-8.5l3-.8v-2z"
          transform="translate(-16 -8)"/>
</svg>