<svg xmlns="http://www.w3.org/2000/svg" viewBox="0 0 24 24" id="icon24-collect">
    <title>icon24-collect</title>
    <path d="m0 0h24v24h-24z" fill="none"/>
    <path clip-rule="evenodd"
          d="m9.4 3c.7 0 1.3.3 1.8.7l1.1 1.1c.1.1.2.2.3.2h4.4c2.2 0 4 1.8 4 4v8c0 1.7-1.3 3-3 3h-11c-1.7 0-3-1.3-3-3v-11c0-1.7 1.3-3 3-3zm0 1h-2.4c-1.1 0-2 .9-2 2v11c0 1.1.9 2 2 2h11c1.1 0 2-.9 2-2v-8c0-1.7-1.3-3-3-3h-4.4c-.4 0-.8-.2-1.1-.4l-1.1-1.1c-.2-.3-.6-.5-1-.5zm3.1 5c.3 0 .5.2.5.5v2.5h2.5c.3 0 .5.2.5.5s-.2.5-.5.5h-2.5v2.5c0 .3-.2.5-.5.5s-.5-.2-.5-.5v-2.5h-2.5c-.3 0-.5-.2-.5-.5s.2-.5.5-.5h2.5v-2.5c0-.3.2-.5.5-.5z"
          fill-opacity=".8" fill-rule="evenodd"/>
</svg>