<svg xmlns="http://www.w3.org/2000/svg" viewBox="0 0 24 24" id="icon24_good">
    <title>icon24_good</title>
    <path d="m0 0h24v24h-24z" fill="none"/>
    <path d="m7 21c-1.6 0-3-1.4-3-3v-5.5c0-1.6 1.2-2.9 2.7-3l.9-.1c.1 0 .2 0 .3-.1.3-.1.6-.2.8-.4.5-.3.8-.7 1-1.3.2-.2.2-.4.3-.6 0-.1.1-.3.2-.6.7-2.5 1.2-3.4 2.6-3.4 1.7 0 2.8 1.5 2.8 3.3 0 .6-.1 1.2-.2 1.8v.1h2.7c.7 0 1.3.2 1.9.7.8.7 1.2 2 .9 3.9-.2 1.1-.4 2.2-.7 3.2-.2.8-.5 1.6-.7 2.3-.2.4-.3.7-.3.8-.1.3-.4.6-.8 1-.7.6-1.5 1-2.5 1h-6.9-1-1zm.7-10.6-.9.1c-1 .1-1.8 1-1.8 2v5.5c0 1.1.9 2 2 2h1v-9.7c-.1 0-.2 0-.3.1zm5.1-6.4c-.8 0-1.1.4-1.7 2.6-.1.4-.1.5-.2.6-.1.2-.1.4-.2.6-.2.9-.7 1.5-1.3 1.9-.2.1-.3.2-.4.2v10.1h6.8c.7 0 1.3-.2 1.8-.7.3-.3.5-.5.6-.7s.2-.4.3-.8c.2-.7.5-1.4.7-2.2.3-1 .5-2 .7-3.1.2-1.5 0-2.4-.6-2.9-.3-.3-.7-.4-1.2-.4h-2.7c-.6 0-1.1-.6-1-1.2v-.1c.1-.6.2-1.1.2-1.6 0-1.4-.7-2.3-1.8-2.3z"
          fill-opacity=".8"/>
</svg>