<svg xmlns="http://www.w3.org/2000/svg" viewBox="0 0 24 24" id="icon24_like">
    <title>icon24_like</title>
    <path d="m15.2 4.5c3 0 5.3 2.6 5.3 5.8 0 2.6-1.3 4.9-3.9 7.1-.9.8-1.9 1.5-2.9 2.2-.3.2-.6.4-.9.6-.2.1-.3.2-.4.2-.3.1-.6.1-.8 0-.1 0-.2-.1-.4-.2-.3-.2-.6-.4-.9-.6-1-.7-2-1.4-2.9-2.2-2.6-2.2-3.9-4.5-3.9-7.1 0-3.2 2.4-5.8 5.3-5.8 1.2 0 2.3.4 3.2 1.1.9-.7 2-1.1 3.2-1.1zm-2.9 14.8c.3-.2.6-.4.9-.6 1-.6 1.9-1.4 2.8-2.1 2.4-2.1 3.6-4.1 3.6-6.4 0-2.7-1.9-4.8-4.3-4.8-1 0-2 .4-2.8 1.2-.2.2-.5.2-.7 0-.8-.7-1.8-1.2-2.8-1.2-2.4 0-4.3 2.1-4.3 4.8 0 2.3 1.1 4.3 3.6 6.4.9.7 1.8 1.4 2.8 2.1l.9.6c.1.1.2.1.3.2-.2-.1-.1-.1 0-.2z"/>
</svg>