<svg xmlns="http://www.w3.org/2000/svg" viewBox="0 0 24 24" id="icon24_lyric_off">
    <title>icon24_lyric_off</title>
    <g transform="translate(4 4)">
        <path d="m0 0h16v16h-16z" fill="none"/>
        <path clip-rule="evenodd"
              d="m12.5 2c.3 0 .5.2.5.5v10.3c0 .2-.2.4-.4.5h-.1-3c-.3 0-.5-.2-.5-.5s.2-.5.5-.5h2.5v-9.3h-5.5c-.3 0-.5-.2-.5-.5s.2-.5.5-.5zm-9 2.3c.3 0 .5.2.5.5v7l.8-.6c.2-.2.5-.1.7.1s.1.5-.1.7l-1.6 1.1c-.1.1-.2.1-.4.1-.3 0-.5-.2-.5-.5v-7.4h-.5c-.2 0-.4-.2-.4-.5s.2-.5.5-.5zm7 2c.3 0 .5.2.5.5v4c0 .2-.2.4-.4.5h-.1-4c-.3 0-.5-.2-.5-.5v-4c0-.3.2-.5.5-.5zm-.5 1h-3v3h3zm.5-3c.3 0 .5.2.5.5s-.2.5-.5.5h-4c-.3 0-.5-.2-.5-.5s.2-.5.5-.5zm-7.6-2.2.8.6c.2.1.3.4.1.7-.1.2-.5.2-.7.1l-.8-.6c-.2-.1-.3-.5-.1-.7.1-.2.5-.3.7-.1z"
              fill-rule="evenodd" opacity=".8"/>
    </g>
</svg>