<svg xmlns="http://www.w3.org/2000/svg" viewBox="0 0 24 24" id="icon24_lyric_on">
    <title>icon24_lyric_on</title>
    <path d="m10.5 9.3h4c.3 0 .5-.2.5-.5s-.2-.5-.5-.5h-4c-.3 0-.5.2-.5.5s.2.5.5.5z"/>
    <path d="m6.3 6.9.8.6c.2.1.6.1.7-.1.2-.3.1-.6-.1-.7l-.8-.6c-.2-.2-.6-.1-.7.1-.2.2-.1.6.1.7z"/>
    <path d="m10.5 7h5.5v4c.3 0 .7 0 1 .1v-4.6c0-.3-.2-.5-.5-.5h-6c-.3 0-.5.2-.5.5s.2.5.5.5z"/>
    <path d="m16 12c-1.7 0-3 1.3-3 3s1.3 3 3 3 3-1.3 3-3-1.3-3-3-3zm1.8 2.3-2 2c-.1.2-.4.2-.6 0l-1-1c-.2-.1-.2-.4 0-.6.1-.2.4-.2.6 0l.7.7 1.7-1.7c.2-.2.4-.2.6 0 .2.1.2.4 0 .6z"/>
    <path d="m8.8 15.2-.8.6v-7c0-.3-.2-.5-.5-.5h-1c-.3 0-.5.2-.5.5s.2.5.4.5h.5v7.4c0 .3.2.5.5.5.2 0 .3 0 .4-.1l1.6-1.1c.2-.2.3-.5.1-.7s-.5-.3-.7-.1z"/>
    <path d="m11 11.3h3v.2c.3-.2.6-.3 1-.4v-.3c0-.3-.2-.5-.5-.5h-4c-.3 0-.5.2-.5.5v4c0 .3.2.5.5.5h1.5v-.3c0-.2 0-.5.1-.7h-1.1z"/>
</svg>