<svg xmlns="http://www.w3.org/2000/svg" viewBox="0 0 24 24" id="icon24_mode_cycle1">
    <title>icon24_mode_cycle1</title>
    <path d="m18 11.5c-.3 0-.5.2-.5.5 0 .2 0 .4 0 .5-.3 1.7-1.7 3-3.5 3h-4c-1.9 0-3.5-1.6-3.5-3.5 0-1.9 1.6-3.5 3.5-3.5h4c0 0 0 0 0 0v1.3c0 0 0 0 0 .1 0 0 .1.1.1 0l2.4-1.8c0 0 0 0 0 0 0 0 0-.1 0-.1l-2.4-1.8c0 0 0 0-.1 0-.1 0-.1 0-.1.1v1.3c0 0 0 0 0 0h-4c-2.5 0-4.5 2-4.5 4.5 0 2.5 2 4.5 4.5 4.5h4c2.2 0 4.1-1.6 4.4-3.8 0-.2.1-.4.1-.7.1-.4-.1-.6-.4-.6z"
          fill-opacity=".8"/>
    <path d="m12.7 14.5v-5h-.4c-.4.5-.9.9-1.6 1.2v.9l1-.6v3.6h1z" fill-opacity=".8"/>
</svg>