<svg xmlns="http://www.w3.org/2000/svg" viewBox="0 0 24 24" id="icon24_mode_heartbit">
    <title>icon24_mode_heartbeat</title>
    <path d="m10.9.5c2 0 3.7 1.6 4.1 3.6 1.3.4 2 1 2 1.9 0 1.1-1.1 1.7-3 2.1-.5.7-1.1 1.4-2 2.1-.7.6-1.4 1.1-2.2 1.6-.2.2-.5.3-.7.4-.1.1-.2.1-.3.2-.2.1-.5.1-.7 0-.1 0-.2-.1-.3-.2-.2-.1-.5-.3-.7-.4-.8-.5-1.5-1-2.2-1.6-.7-.7-1.4-1.4-1.9-2.1-2-.4-3-1-3-2.1 0-.9.7-1.5 2.1-1.9.3-2 2-3.6 4.1-3.6.9 0 1.7.3 2.4.8.6-.5 1.4-.8 2.3-.8zm-3.8 6.4c-.1.1-.2.2-.4.5-.1.1-.1.2-.2.3-.5.5-.8.7-1.2.7-.3 0-.6 0-.9-.1.3.4.7.7 1.2 1.1.7.6 1.4 1.1 2.1 1.6.2.2.5.3.7.4 0 0 .1.1.1.1s.1 0 .1-.1c.2-.1.4-.3.7-.4.7-.5 1.4-1 2.1-1.5.5-.4.9-.8 1.2-1.1-.4 0-.9.1-1.4.1 0 0-.2.2-.4.4l-.1.1c-.3.3-.4.4-.5.5-.3.1-.4.2-.7.2-.3.1-.5-.1-.8-.6-.2-.3-.4-.5-.8-1.1-.4-.5-.5-.8-.7-1 0 0 0-.1-.1-.1zm3.8-5.4c-.7 0-1.5.3-2 .8l-.4.3-.3-.3c-.6-.5-1.3-.8-2-.8-1.8 0-3.2 1.5-3.2 3.4 0 .8.2 1.6.6 2.3.5.1 1.1.1 1.8.2 0 0 .1-.1.3-.4.1-.1.2-.1.3-.2.2-.3.4-.5.5-.6.3-.3.4-.4.7-.4s.5.2.8.7c.2.2.3.5.7 1.1s.5.8.7 1c0 .1.1.1.1.1.2-.2.3-.3.5-.5.5-.5.8-.7 1.1-.7.9-.1 1.6-.1 2.3-.2.4-.8.6-1.6.6-2.4 0-1.9-1.4-3.4-3.1-3.4zm-8.9 3.7c-.7.2-1 .5-1 .8 0 .4.5.7 1.4.9-.2-.5-.4-1.1-.4-1.7zm13 0v.2c0 .5-.2 1-.4 1.5.9-.2 1.4-.5 1.4-.9 0-.3-.3-.6-1-.8z"
          fill-opacity=".8" transform="translate(4 6)"/>
</svg>