<svg xmlns="http://www.w3.org/2000/svg" viewBox="0 0 24 24" id="icon24_mode_list">
    <title>icon24_mode_list</title>
    <path d="m16.8964466 13.1764466c.1952622-.1952621.5118446-.1952621.7071068 0l1.9114746 1.9114746c.1952621.1952622.1952621.5118447 0 .7071068l-1.9114746 1.9114746c-.1952622.1952622-.5118446.1952622-.7071068 0-.1952621-.1952621-.1952621-.5118446 0-.7071068l.9985534-.9993958h-11.395c-.27614237 0-.5-.2238576-.5-.5s.22385763-.5.5-.5h11.513l-1.1165534-1.1164466c-.1735663-.1735664-.1928515-.4429908-.0578554-.6378589zm1.6035534-2.1764466c.2761424 0 .5.2238576.5.5s-.2238576.5-.5.5h-12c-.27614237 0-.5-.2238576-.5-.5s.22385763-.5.5-.5zm0-4c.2761424 0 .5.22385763.5.5s-.2238576.5-.5.5h-12c-.27614237 0-.5-.22385763-.5-.5s.22385763-.5.5-.5z"
          fill-opacity=".8" fill-rule="evenodd"/>
</svg>