<svg xmlns="http://www.w3.org/2000/svg" viewBox="0 0 24 24" id="icon24_playlist">
    <title>icon24_playlist</title>
    <path d="m0 0h24v24h-24z" fill="none"/>
    <path clip-rule="evenodd"
          d="m11.5 6h8c.3 0 .5.2.5.5s-.2.5-.5.5h-8c-.3 0-.5-.2-.5-.5s.2-.5.5-.5zm8 12c.3 0 .5.2.5.5s-.2.5-.5.5h-15c-.3 0-.5-.2-.5-.5s.2-.5.5-.5zm0-6c.3 0 .5.2.5.5s-.2.5-.5.5h-15c-.3 0-.5-.2-.5-.5s.2-.5.5-.5zm-15-8.1c.1 0 .2 0 .3.1l3.5 2.1c.2.1.3.4.2.7 0 .1-.1.1-.2.2l-3.5 2c-.3.2-.6.1-.7-.1-.1-.1-.1-.2-.1-.3v-4.2c0-.3.2-.5.5-.5z"
          fill-rule="evenodd"/>
</svg>