<svg xmlns="http://www.w3.org/2000/svg" viewBox="-4 -4 20 20" id="praise">
    <title>praise</title>
    <path d="m298.4 20c-.1.1-.5 1-1.7 1h-6.7v-8.2c.8-.5 1.7-1.5 2.2-3.5v-.1-.1c0-.5.3-2.1.9-2.1h.1.1c.7 0 1.1.7 1.2 2-.1.6-.2 1.7-.4 2.1l-.3.9h1.2 4.1s.5.3.7.7.3 1.1.2 1.8c-.4 2.8-1.6 5.5-1.6 5.5zm-12.4.1v-5.9c0-.2.1-1 .8-1h1.9.1.1.2v7.8h-2.1c-.5 0-1-.2-1-.9m9.2-9.1c.4-.7.2-2 .2-2 0-2.8-1.6-3-2.2-3-.1 0-.2 0-.2 0-1.8 0-1.9 3.1-1.9 3.1-.7 3-2.5 3.2-2.5 3.2h-1.9c-1.8 0-1.8 2-1.8 2v5.9c0 1.9 1.8 1.9 1.8 1.9h9.9c1.8 0 2.6-1.5 2.6-1.5s1.3-2.9 1.7-5.9-1.7-3.6-1.7-3.6h-4z"
          transform="translate(-287 -8)"/>
</svg>