<svg xmlns="http://www.w3.org/2000/svg" viewBox="0 0 24 24" id="icon24_sound0">
    <title>icon24_sound0</title>
    <path d="m0 0h24v24h-24z" fill="none"/>
    <path d="m17.7 2.5c.7 0 1.2.5 1.3 1.2v.1 4.2c0 .3-.2.5-.5.5-.2 0-.4-.2-.5-.4v-.1-4.2c0-.2-.1-.3-.3-.3h-.1l-6.3 3.8c-.2.1-.3.2-.3.4v.1 8.5c0 .1.1.3.2.4l.1.1 6.3 3.8c.1.1.3 0 .4 0v-.1-.1-.1-4.3c0-.3.2-.5.5-.5.2 0 .4.2.5.4v.1 4.2c0 .1 0 .3-.1.4l-.1.1-.1.1c-.3.6-1.1.8-1.7.5l-6.3-3.8c-.4-.2-.7-.7-.7-1.1v-.2-8.4c0-.5.2-.9.6-1.2l.1-.1 6.3-3.8c.2-.1.5-.2.7-.2zm-12.2 4h2c.3 0 .5.2.5.5 0 .2-.2.4-.4.5h-.1-2c-.2 0-.4.2-.5.4v.1 8c0 .2.2.4.4.5h.1 2c.3 0 .5.2.5.5 0 .2-.2.4-.4.5h-.1-2c-.8 0-1.4-.6-1.5-1.4v-.1-8c0-.8.6-1.4 1.4-1.5h.1 2zm11.3 3.1 1.7 1.7 1.6-1.6c.2-.2.4-.2.6-.1l.1.1c.2.2.2.4.1.6l-.1.1-1.6 1.6 1.6 1.6c.2.2.2.4.1.6l-.1.1c-.2.2-.4.2-.6.1l-.1-.1-1.6-1.6-1.6 1.6c-.2.2-.4.2-.6.1l-.1-.1c-.2-.2-.2-.4-.1-.6l.1-.1 1.6-1.6-1.6-1.6c-.2-.2-.2-.5-.1-.7l.1-.1c.1-.1.4-.1.6 0z"/>
</svg>