<svg xmlns="http://www.w3.org/2000/svg" viewBox="0 0 24 24" id="icon24_soundeffect_on">
    <title>icon24_soundeffect_on</title>
    <path d="m0 0h24v24h-24z" fill="none"/>
    <path d="m9 19.5c-2.8 0-5-2.2-5-5 0-.8.2-1.6.5-2.3.1-.2 0-.5-.2-.7-.2-.1-.5 0-.7.2-.4.9-.6 1.8-.6 2.8 0 3.3 2.7 6 6 6 .8 0 1.6-.2 2.3-.5-.2-.3-.4-.5-.6-.8-.5.2-1.1.3-1.7.3z"/>
    <path d="m7.5 11c .6 0 1 .4 1 1v2.5.1c.1.2.3.4.5.4.3 0 .5-.2.5-.5v-2.5-.1c-.1-1-.9-1.9-2-1.9-2.2 0-4-1.8-4-4v-1h5 .2c1.6.1 2.8 1.4 2.8 3v2.5.1c0 .2.2.4.5.4s.5-.2.5-.5v-2.5c0-1.7 1.3-3 3-3h5v1c0 2.2-1.8 4-4 4-.9 0-1.6.4-2.1 1.1.3-.1.7-.1 1.1-.1h1c2.7 0 5-2.3 5-5v-1.5c0-.3-.2-.5-.5-.5h-5.5c-1.5 0-2.8.8-3.5 2.1-.7-1.3-2-2.1-3.5-2.1h-5.5-.1c-.2 0-.4.2-.4.5v1.5.2c.1 2.7 2.3 4.8 5 4.8z"/>
    <path d="m15 15c-.6 0-1 .4-1 1v1c0 .6.4 1 1 1s1-.4 1-1v-1c0-.6-.4-1-1-1z"/>
    <path d="m19.5 12h-4c-2.5 0-4.5 2-4.5 4.5s2 4.5 4.5 4.5h4c2.5 0 4.5-2 4.5-4.5s-2-4.5-4.5-4.5zm-2.5 5c0 1.1-.9 2-2 2s-2-.9-2-2v-1c0-1.1.9-2 2-2s2 .9 2 2zm5 1.5c0 .3-.2.5-.5.5s-.6-.2-.8-.4l-1.7-2.8v2.7c0 .3-.2.5-.5.5s-.5-.2-.5-.5v-4c0-.3.2-.5.5-.5s.6.2.8.4l1.7 2.7v-2.7c0-.3.2-.5.5-.5s.5.2.5.5z"/>
</svg>