<svg xmlns="http://www.w3.org/2000/svg" viewBox="0 0 24 24" id="icon24_soundeffect">
    <title>icon24_soundeffect</title>
    <path d="m0 0h24v24h-24z" fill="none"/>
    <path d="m3 4h5.5c1.5 0 2.8.8 3.5 2.1.7-1.3 2-2.1 3.5-2.1h5.5c.3 0 .5.2.5.5v1.5c0 2.8-2.2 5-5 5-.8 0-1.5.7-1.5 1.5v2c0 3.3-2.7 6-6 6s-6-2.7-6-6c0-1 .2-1.9.7-2.7.1-.2.4-.3.7-.2.2.1.3.4.2.7-.4.6-.6 1.4-.6 2.2 0 2.8 2.2 5 5 5s5-2.2 5-5v-2c0-1.4 1.1-2.5 2.5-2.5 2.2 0 4-1.8 4-4v-1h-5c-1.7 0-3 1.3-3 3v2.5c0 .3-.2.5-.5.5-.2 0-.4-.2-.5-.4v-.1-2.5c0-1.6-1.2-2.9-2.8-3h-.2-5v1c0 2.2 1.8 4 4 4 1.1 0 1.9.8 2 1.9v.1 2.5c0 .3-.2.5-.5.5-.2 0-.4-.2-.5-.4v-.1-2.5c0-.6-.4-1-1-1-2.7 0-4.9-2.1-5-4.8v-.2-1.5c0-.2.2-.4.5-.5h5.5z"/>
</svg>