<svg xmlns="http://www.w3.org/2000/svg" viewBox="0 0 24 24" id="icon24_sound1">
    <title>icon24_sound1</title>
    <path d="m0 0h24v24h-24z" fill="none"/>
    <path d="m17.7 2.5c.7 0 1.3.6 1.3 1.3v16.4c0 .2-.1.5-.2.7-.4.6-1.2.8-1.8.4l-6.3-3.8c-.5-.3-.7-.8-.7-1.3v-8.4c0-.5.3-1 .7-1.3l6.3-3.8c.2-.1.5-.2.7-.2zm0 1c-.1 0-.1 0-.2 0l-6.3 3.8c-.1.1-.2.3-.2.5v8.5c0 .2.1.3.2.4l6.3 3.8c.1.1.3 0 .4-.1 0 0 0-.1 0-.2v-16.4c.1-.2 0-.3-.2-.3zm-10.2 3c.3 0 .5.2.5.5s-.2.5-.5.5h-2c-.3 0-.5.2-.5.5v8c0 .3.2.5.5.5h2c.3 0 .5.2.5.5s-.2.5-.5.5h-2c-.8 0-1.5-.7-1.5-1.5v-8c0-.8.7-1.5 1.5-1.5z"/>
</svg>