<svg xmlns="http://www.w3.org/2000/svg" viewBox="0 0 24 24" id="icon24_together">
    <title>icon24_together</title>
    <path d="m20.271 9.97c.056.021.113.03.17.03.204 0 .396-.126.47-.33.258-.71.388-1.457.388-2.219 0-.725-.118-1.436-.351-2.113-.09-.261-.373-.399-.635-.311-.262.09-.4.374-.311.635.196.573.296 1.174.296 1.789 0 .646-.11 1.278-.327 1.879-.094.259.041.546.3.64z"/>
    <path d="m3.559 10c .057 0 .114-.009.17-.03.26-.094.394-.38.3-.64-.217-.602-.328-1.234-.328-1.879 0-.612.1-1.214.296-1.789.089-.262-.05-.546-.311-.635-.263-.088-.546.05-.635.311-.232.679-.35 1.39-.35 2.112 0 .761.13 1.508.387 2.219.074.205.266.331.471.331z"/>
    <path d="m12.559 10.781c.881-.822 1.441-1.984 1.441-3.281 0-2.481-2.019-4.5-4.5-4.5s-4.5 2.019-4.5 4.5c0 1.3.563 2.464 1.448 3.286-2.938 1.631-4.432 4.401-4.43 8.226l-.018.47c-.009.277.207.508.482.518.006 0 .012 0 .018 0 .268 0 .49-.212.5-.482l.017-.487c-.001-3.534 1.304-5.96 3.989-7.416l.339-.189c.642.354 1.37.574 2.155.574.787 0 1.517-.221 2.162-.578l.349.192c2.678 1.456 3.98 3.882 3.979 7.427l.01.47c.006.272.229.489.5.489.003 0 .007 0 .011 0 .275-.006.495-.234.489-.511l-.01-.459c.001-3.843-1.49-6.614-4.431-8.249zm-6.559-3.281c0-1.93 1.57-3.5 3.5-3.5s3.5 1.57 3.5 3.5-1.57 3.5-3.5 3.5-3.5-1.57-3.5-3.5z"/>
    <path d="m21.99 19.03c.001-3.838-1.487-6.606-4.425-8.245.89-.833 1.435-2.013 1.435-3.285 0-2.481-2.019-4.5-4.5-4.5-.276 0-.5.224-.5.5s.224.5.5.5c1.93 0 3.5 1.57 3.5 3.5 0 1.558-1.045 2.942-2.542 3.367-.266.075-.42.352-.345.618.063.22.264.363.481.363.045 0 .091-.006.137-.019.334-.095.643-.239.938-.403l.341.188c2.679 1.456 3.98 3.882 3.979 7.427l.01.47c.007.272.23.489.501.489.003 0 .007 0 .011 0 .275-.006.495-.234.489-.511z"/>
</svg>